<svg version="1.1" xmlns="http://www.w3.org/2000/svg" viewBox="0 0 1808.571646554129 673.7142508370534" width="1808.571646554129" height="673.7142508370534">
  <!-- svg-source:excalidraw -->
  
  <defs>
    <style class="style-fonts">
      @font-face {
        font-family: "Virgil";
        src: url("https://excalidraw.com/Virgil.woff2");
      }
      @font-face {
        font-family: "Cascadia";
        src: url("https://excalidraw.com/Cascadia.woff2");
      }
    </style>
    
  </defs>
  <rect x="0" y="0" width="1808.571646554129" height="673.7142508370534" fill="#ffffff"></rect><g stroke-linecap="round" transform="translate(10 10) rotate(0 195.99999564034596 91.42857142857136)"><path d="M32 0 M32 0 C135.02 0.64, 237.21 2.31, 360 0 M32 0 C120.78 -2.19, 210.57 -1.81, 360 0 M360 0 C382.26 -1.86, 392.35 11.83, 392 32 M360 0 C383.63 2.05, 393.18 11.38, 392 32 M392 32 C392 56.24, 390.73 80.93, 392 150.86 M392 32 C392.35 63.39, 391.11 95.85, 392 150.86 M392 150.86 C393.71 173.1, 382.76 183.5, 360 182.86 M392 150.86 C391.62 171.64, 381.6 180.94, 360 182.86 M360 182.86 C266.59 184.04, 171.88 184.05, 32 182.86 M360 182.86 C238.05 181.4, 116.01 180.68, 32 182.86 M32 182.86 C8.99 181.52, 1.96 170.7, 0 150.86 M32 182.86 C11.97 184.31, 1.63 173.09, 0 150.86 M0 150.86 C-0.08 112.02, -1.31 73.03, 0 32 M0 150.86 C1.71 118.42, 1.44 84.34, 0 32 M0 32 C-0.4 10.14, 11.19 -0.58, 32 0 M0 32 C-1.06 12.84, 10.38 -1.54, 32 0" stroke="#1e1e1e" stroke-width="1" fill="none"></path></g><g transform="translate(29.428580147879472 27.14285714285711) rotate(0 52.8076171875 34.50000000000003)"><text x="0" y="0" font-family="Helvetica, Segoe UI Emoji" font-size="20px" fill="#1e1e1e" text-anchor="start" style="white-space: pre;" direction="ltr" dominant-baseline="text-before-edge">Lokal:</text><text x="0" y="23" font-family="Helvetica, Segoe UI Emoji" font-size="20px" fill="#1e1e1e" text-anchor="start" style="white-space: pre;" direction="ltr" dominant-baseline="text-before-edge">- Styleguide</text><text x="0" y="46" font-family="Helvetica, Segoe UI Emoji" font-size="20px" fill="#1e1e1e" text-anchor="start" style="white-space: pre;" direction="ltr" dominant-baseline="text-before-edge">- Linter</text></g><g stroke-linecap="round" transform="translate(588.2857404436384 19.14289202008922) rotate(0 234.8571777343749 94.28571428571425)"><path d="M7.86 8.16 C7.86 8.16, 7.86 8.16, 7.86 8.16 M7.86 8.16 C7.86 8.16, 7.86 8.16, 7.86 8.16 M3.66 19.09 C6.7 14.47, 10.32 11.9, 18.1 2.48 M3.66 19.09 C8.25 13.9, 12.55 8.87, 18.1 2.48 M2.75 26.24 C8.76 20.63, 14.73 14.9, 24.4 1.33 M2.75 26.24 C9.44 20.38, 14.71 13.58, 24.4 1.33 M2.48 32.64 C8.88 26.65, 16.44 18.61, 30.7 0.18 M2.48 32.64 C11.91 22.49, 19.58 11.88, 30.7 0.18 M2.88 38.28 C11.1 30.63, 17.63 19.75, 34.37 2.05 M2.88 38.28 C13.58 26.01, 26.06 13.02, 34.37 2.05 M2.62 44.68 C14.6 29.42, 24.6 18.6, 39.36 2.41 M2.62 44.68 C15.48 28.69, 28.13 14.72, 39.36 2.41 M2.36 51.07 C16.94 33.45, 32.04 13.93, 45 2.02 M2.36 51.07 C15.86 35.63, 28.2 20.13, 45 2.02 M2.75 56.72 C16.76 42.08, 30.33 25.01, 49.99 2.38 M2.75 56.72 C21.83 34.34, 40.47 13.76, 49.99 2.38 M2.49 63.11 C21.5 38.23, 42.22 14.14, 55.63 1.98 M2.49 63.11 C18.79 44.33, 34.81 26.64, 55.63 1.98 M2.88 68.76 C20.9 48.44, 37.43 25.85, 60.62 2.34 M2.88 68.76 C13.56 54.32, 25.73 41.76, 60.62 2.34 M2.62 75.16 C22.93 52.06, 43.25 30.83, 66.26 1.95 M2.62 75.16 C24.56 49.68, 46.72 23.18, 66.26 1.95 M2.36 81.55 C19.69 62.42, 35.97 42.31, 71.25 2.31 M2.36 81.55 C27.2 54.78, 51.68 27.15, 71.25 2.31 M2.76 87.2 C30.75 52.22, 59.2 19.46, 76.89 1.91 M2.76 87.2 C18.31 68.92, 34.18 50.71, 76.89 1.91 M2.49 93.59 C18.84 75.69, 35.77 52.71, 81.88 2.27 M2.49 93.59 C18.39 75.5, 34.94 56.88, 81.88 2.27 M2.89 99.24 C26.22 71.91, 53.27 42.45, 87.52 1.88 M2.89 99.24 C29.67 69.41, 55.67 39.19, 87.52 1.88 M2.63 105.64 C33.7 70.42, 63.34 37.45, 92.51 2.24 M2.63 105.64 C32.58 71.51, 62.97 37.9, 92.51 2.24 M2.37 112.03 C22.34 86.62, 43.77 63.52, 98.15 1.85 M2.37 112.03 C23.65 88.49, 45.63 62.03, 98.15 1.85 M2.76 117.68 C25.87 89.84, 47.85 65.07, 103.14 2.21 M2.76 117.68 C35.19 81.62, 66.04 45.48, 103.14 2.21 M2.5 124.07 C32.22 90.13, 65.34 52.11, 108.78 1.81 M2.5 124.07 C44.84 75.01, 87.21 27.54, 108.78 1.81 M2.89 129.72 C38.22 90.32, 70.57 50.87, 113.77 2.17 M2.89 129.72 C39.8 88.1, 76.65 46.95, 113.77 2.17 M2.63 136.11 C30.91 107.06, 58.09 75.96, 119.41 1.78 M2.63 136.11 C47.5 85.53, 91.22 34.52, 119.41 1.78 M2.37 142.51 C33.92 104.45, 66.3 68.01, 124.4 2.14 M2.37 142.51 C45.27 91.55, 89.44 41.45, 124.4 2.14 M2.77 148.16 C35.03 114.42, 62.03 76.4, 130.04 1.74 M2.77 148.16 C32.79 115.39, 61.53 83.63, 130.04 1.74 M2.5 154.55 C35.45 115.26, 72.12 77.89, 135.03 2.1 M2.5 154.55 C54.1 95.01, 106.63 34.87, 135.03 2.1 M2.9 160.2 C46.22 110.83, 91.14 59.22, 140.67 1.71 M2.9 160.2 C44.39 110.47, 85.91 62.08, 140.67 1.71 M3.29 165.84 C40.06 127.98, 71.68 88.98, 145.66 2.07 M3.29 165.84 C32.91 130.43, 63.57 95.22, 145.66 2.07 M4.34 170.73 C62.17 104.77, 116.92 36.65, 150.65 2.43 M4.34 170.73 C48.73 122.39, 90.72 74.03, 150.65 2.43 M4.74 176.37 C45 134.93, 81.85 90.68, 156.29 2.03 M4.74 176.37 C37.24 137.58, 69.08 99.42, 156.29 2.03 M7.76 179 C59.19 117.52, 114.33 58.74, 161.28 2.39 M7.76 179 C59.94 119.55, 110.23 59.14, 161.28 2.39 M10.78 181.62 C67.22 116.28, 126.32 50.43, 166.92 2 M10.78 181.62 C74.06 111.29, 134.99 40.62, 166.92 2 M13.14 185 C75.27 116.69, 135.49 46.34, 171.91 2.36 M13.14 185 C64.26 126.08, 115.56 66.55, 171.91 2.36 M16.81 186.87 C63.45 128.48, 113.94 71.84, 177.55 1.96 M16.81 186.87 C74.25 121.38, 130.65 56.19, 177.55 1.96 M20.49 188.74 C66.76 137.38, 111.12 82.22, 182.54 2.32 M20.49 188.74 C55.01 147.1, 90.13 105.49, 182.54 2.32 M25.48 189.1 C62.77 144, 101.32 102.38, 188.18 1.93 M25.48 189.1 C72.9 136.16, 119.42 81.97, 188.18 1.93 M29.81 190.21 C91.99 119.84, 152.26 52.25, 193.17 2.29 M29.81 190.21 C79.27 133.41, 128.78 74.15, 193.17 2.29 M34.79 190.57 C92.98 119.77, 153.37 52.77, 198.81 1.9 M34.79 190.57 C99.36 115.07, 164.68 40.07, 198.81 1.9 M39.78 190.93 C88.69 134.4, 136.14 78.6, 203.8 2.26 M39.78 190.93 C101.23 121.61, 160.84 51.03, 203.8 2.26 M45.42 190.54 C107.68 120.29, 167.72 51.4, 209.44 1.86 M45.42 190.54 C94.01 135.63, 142.97 78.45, 209.44 1.86 M50.41 190.9 C95.25 136.78, 143.84 81.83, 214.43 2.22 M50.41 190.9 C95.46 137.49, 142.64 83.28, 214.43 2.22 M56.05 190.5 C111.25 122.07, 171.14 55.75, 220.07 1.83 M56.05 190.5 C121.1 114.69, 185.98 39.83, 220.07 1.83 M61.04 190.86 C106.84 135.8, 154.18 84.43, 225.06 2.19 M61.04 190.86 C101.15 145.44, 141.11 99.84, 225.06 2.19 M66.68 190.47 C110.7 140.65, 156.24 89.92, 230.7 1.79 M66.68 190.47 C117.38 132.65, 167.62 75.52, 230.7 1.79 M71.67 190.83 C135.36 116.53, 197.97 43.07, 235.69 2.15 M71.67 190.83 C126.22 128.39, 179.91 65.88, 235.69 2.15 M76.66 191.19 C129.77 131.8, 181.22 69.81, 241.33 1.76 M76.66 191.19 C118.34 145.06, 158.82 97.2, 241.33 1.76 M82.3 190.79 C125.8 139.41, 172.95 86.7, 246.32 2.12 M82.3 190.79 C140.15 125.49, 198.02 59.61, 246.32 2.12 M87.29 191.15 C146.12 120.56, 207.8 52.76, 251.96 1.72 M87.29 191.15 C126.03 145.85, 165.1 100.01, 251.96 1.72 M92.93 190.76 C147.86 130.52, 199.57 67.34, 256.95 2.08 M92.93 190.76 C155.91 116.85, 220.26 43.84, 256.95 2.08 M97.92 191.12 C145.85 138.69, 189.92 85.32, 262.59 1.69 M97.92 191.12 C148.08 134.05, 197.8 77.23, 262.59 1.69 M103.56 190.73 C149.41 138.25, 197.12 84.2, 267.58 2.05 M103.56 190.73 C144.96 142.03, 185.37 94.38, 267.58 2.05 M108.55 191.09 C144.57 148.56, 182.28 106.34, 272.56 2.41 M108.55 191.09 C151.2 141.57, 193.71 91.94, 272.56 2.41 M114.19 190.69 C153 144.06, 191.92 99.2, 278.21 2.01 M114.19 190.69 C151.61 144.86, 191.5 100.48, 278.21 2.01 M119.18 191.05 C183.26 118.71, 248.58 43.45, 283.19 2.37 M119.18 191.05 C177.01 124.79, 233.87 60.5, 283.19 2.37 M124.82 190.66 C164.11 147.12, 202.52 100.38, 288.84 1.98 M124.82 190.66 C185.19 123.3, 242.54 55.79, 288.84 1.98 M129.81 191.02 C165.19 153.77, 195.69 114.5, 293.82 2.34 M129.81 191.02 C195.74 115.96, 261.35 41.79, 293.82 2.34 M135.45 190.62 C178.26 142.68, 220.59 90.04, 299.47 1.94 M135.45 190.62 C187.22 131.52, 238.11 71.95, 299.47 1.94 M140.44 190.98 C199.3 124.41, 255.51 56.41, 304.45 2.3 M140.44 190.98 C178.62 145.61, 218.49 101.12, 304.45 2.3 M146.08 190.59 C190.04 143.71, 229.83 96.59, 310.1 1.91 M146.08 190.59 C198.54 128.54, 252.34 66.37, 310.1 1.91 M151.07 190.95 C210.43 119.75, 272 50.34, 315.08 2.27 M151.07 190.95 C204.07 130.32, 256.18 70.33, 315.08 2.27 M156.71 190.55 C200.75 137.26, 246.31 86.64, 320.73 1.88 M156.71 190.55 C204.71 132.86, 254.55 74.45, 320.73 1.88 M161.7 190.91 C201.48 146.64, 238.9 102.68, 325.71 2.24 M161.7 190.91 C207.77 139.82, 252.7 88.87, 325.71 2.24 M167.34 190.52 C226.89 120.99, 284.49 52.32, 331.36 1.84 M167.34 190.52 C209.4 139.41, 254.82 89.39, 331.36 1.84 M172.33 190.88 C234.26 120.5, 293.52 48.97, 336.34 2.2 M172.33 190.88 C229.34 124.53, 286.75 58.98, 336.34 2.2 M177.97 190.48 C225.49 134.03, 275.77 79.92, 341.99 1.81 M177.97 190.48 C234.39 125.08, 289.25 61.14, 341.99 1.81 M182.96 190.84 C222.3 145.48, 263.71 98.22, 346.97 2.17 M182.96 190.84 C246.87 115.22, 311.2 40.6, 346.97 2.17 M188.6 190.45 C252.02 118.91, 311.93 51.03, 352.62 1.77 M188.6 190.45 C244.55 124.59, 300.62 59.23, 352.62 1.77 M193.59 190.81 C255.5 118.99, 320.46 47, 357.6 2.13 M193.59 190.81 C237.79 142.99, 279.6 92.55, 357.6 2.13 M198.58 191.17 C245.61 138.31, 292.51 85.49, 363.25 1.74 M198.58 191.17 C233.22 151.36, 268.2 113.08, 363.25 1.74 M204.22 190.78 C259.69 126.28, 316.03 61.21, 368.23 2.1 M204.22 190.78 C238.33 152.84, 271.25 114.02, 368.23 2.1 M209.21 191.14 C248.1 150.17, 284.37 107.38, 373.88 1.7 M209.21 191.14 C268.42 121.71, 329.01 53.1, 373.88 1.7 M214.85 190.74 C271.25 127.57, 324.2 64.55, 378.86 2.06 M214.85 190.74 C259.09 139.59, 305.06 86.99, 378.86 2.06 M219.84 191.1 C279.93 121.13, 339.43 53.93, 383.85 2.42 M219.84 191.1 C276.17 125.45, 333.26 61.54, 383.85 2.42 M225.48 190.71 C260.96 149.11, 300.15 105.21, 389.49 2.03 M225.48 190.71 C281.92 125.2, 338.08 60.25, 389.49 2.03 M230.47 191.07 C266.07 149.91, 302.33 109.43, 394.48 2.39 M230.47 191.07 C292.91 118.76, 355.37 45.98, 394.48 2.39 M236.11 190.67 C290.2 128.36, 341.69 69.72, 400.12 1.99 M236.11 190.67 C280.04 142.05, 323.35 91.56, 400.12 1.99 M241.1 191.03 C275.72 149.63, 311.89 109.03, 405.11 2.35 M241.1 191.03 C279.97 148.38, 318.01 105.01, 405.11 2.35 M246.74 190.64 C309.04 123.18, 369.15 51.4, 410.75 1.96 M246.74 190.64 C298.2 130.05, 349.07 70.98, 410.75 1.96 M251.73 191 C314.61 120.51, 380.74 45.62, 415.74 2.32 M251.73 191 C306.38 131.18, 358.17 70.26, 415.74 2.32 M257.37 190.6 C319.21 119.88, 380.27 49.94, 421.38 1.93 M257.37 190.6 C316.12 123.64, 375.81 55.54, 421.38 1.93 M262.36 190.96 C303.44 143.48, 347.46 92.98, 426.37 2.29 M262.36 190.96 C296.52 153.44, 330.04 114.48, 426.37 2.29 M268 190.57 C328.59 120.6, 388.28 50.77, 432.01 1.89 M268 190.57 C310.19 140.72, 353.95 90.83, 432.01 1.89 M272.99 190.93 C329.37 124.76, 387.53 59.62, 438.31 0.74 M272.99 190.93 C328.01 129.69, 382.27 66.97, 438.31 0.74 M278.63 190.53 C321.48 140.97, 366.04 89.69, 443.3 1.1 M278.63 190.53 C332.47 130.17, 383.22 69.82, 443.3 1.1 M283.62 190.89 C327.13 141.33, 370.86 89.41, 447.63 2.22 M283.62 190.89 C325.74 144.86, 366.03 99.42, 447.63 2.22 M289.26 190.5 C356.23 117, 421.39 41.28, 452.62 2.58 M289.26 190.5 C353.92 118.33, 416.87 44.72, 452.62 2.58 M294.25 190.86 C330.67 150.41, 369.96 105.61, 456.29 4.45 M294.25 190.86 C327.29 150.12, 363.52 110.55, 456.29 4.45 M299.89 190.46 C353.93 124.41, 410.01 63.06, 459.31 7.07 M299.89 190.46 C359.36 121.93, 419.07 54.49, 459.31 7.07 M304.88 190.82 C359.32 126.67, 417.18 63.11, 462.99 8.94 M304.88 190.82 C368.82 118.88, 431.48 46.36, 462.99 8.94 M309.86 191.19 C366.16 127.61, 420.38 66.36, 465.35 12.32 M309.86 191.19 C362.2 130.99, 414.89 70.41, 465.35 12.32 M315.51 190.79 C364.48 132.75, 416.46 72.53, 468.37 14.94 M315.51 190.79 C354.29 146.33, 392.04 103.52, 468.37 14.94 M320.49 191.15 C366.61 140.1, 409.37 90.55, 469.42 19.83 M320.49 191.15 C376.72 126.38, 435.02 60.27, 469.42 19.83 M326.14 190.76 C382.13 125.5, 440.6 61.72, 469.81 25.47 M326.14 190.76 C375.69 136.62, 424.08 81.35, 469.81 25.47 M331.12 191.12 C371.43 144.65, 413.63 94.55, 470.21 31.12 M331.12 191.12 C358.5 160.64, 386.17 127.33, 470.21 31.12 M336.77 190.72 C376.82 143.18, 419.54 94.11, 469.95 37.52 M336.77 190.72 C381.04 140.3, 425.75 89.67, 469.95 37.52 M341.75 191.08 C384.03 141.55, 428.27 90.76, 470.34 43.16 M341.75 191.08 C379.96 148.39, 416.4 105.06, 470.34 43.16 M347.4 190.69 C373.35 159.56, 400.05 128.36, 470.08 49.56 M347.4 190.69 C371.4 163.07, 395.27 133.51, 470.08 49.56 M352.38 191.05 C379.63 159.32, 411.17 124.49, 470.48 55.2 M352.38 191.05 C393.41 147.12, 432.23 102.32, 470.48 55.2 M358.03 190.65 C401.31 144.06, 438.78 98.22, 470.21 61.6 M358.03 190.65 C381.78 161.72, 408.23 131.94, 470.21 61.6 M363.01 191.01 C393.39 159.61, 421.93 123.25, 469.95 67.99 M363.01 191.01 C391.22 161.78, 416.95 130.61, 469.95 67.99 M368.66 190.62 C408.43 146.84, 446.92 104.91, 470.35 73.64 M368.66 190.62 C407.71 147.64, 446.33 103.53, 470.35 73.64 M373.64 190.98 C406.6 150.47, 439.1 115.1, 470.09 80.04 M373.64 190.98 C405.44 153.97, 438.33 116.95, 470.09 80.04 M379.29 190.58 C399.68 167.26, 418.56 142.05, 470.48 85.68 M379.29 190.58 C410.27 154.24, 441.64 119.97, 470.48 85.68 M384.27 190.94 C402.11 169.11, 422.82 146.79, 470.22 92.08 M384.27 190.94 C410.66 162.05, 434.9 132.63, 470.22 92.08 M389.92 190.55 C407.52 169.48, 422.77 152.13, 470.61 97.72 M389.92 190.55 C414.51 162.33, 439.16 135.23, 470.61 97.72 M394.9 190.91 C418.33 163, 441.69 137.54, 470.35 104.12 M394.9 190.91 C413.34 169.79, 430.96 149.97, 470.35 104.12 M400.55 190.51 C428.88 159.88, 456.02 125.58, 470.09 110.52 M400.55 190.51 C424.95 164.4, 447.63 136.92, 470.09 110.52 M405.53 190.87 C420.96 170.06, 439.56 150.97, 470.48 116.16 M405.53 190.87 C423.88 169.73, 443.36 148.18, 470.48 116.16 M411.18 190.48 C433.98 163.34, 457.41 138.3, 470.22 122.56 M411.18 190.48 C425.06 173.73, 439.06 158.22, 470.22 122.56 M416.17 190.84 C439.47 167.19, 459.71 138.58, 470.62 128.2 M416.17 190.84 C435.5 168.62, 455.21 145.51, 470.62 128.2 M421.81 190.45 C436.09 174.37, 453.84 152.67, 470.36 134.6 M421.81 190.45 C436.64 172.07, 453.47 154.18, 470.36 134.6 M426.8 190.81 C437.74 178.52, 448.01 165.83, 470.75 140.24 M426.8 190.81 C442.51 172.11, 459.39 153.9, 470.75 140.24 M431.78 191.17 C442.09 177.04, 455.81 163.81, 470.49 146.64 M431.78 191.17 C446.71 175.51, 460.33 158.62, 470.49 146.64 M438.74 189.26 C446.11 179.42, 453.6 173.51, 470.23 153.04 M438.74 189.26 C445.91 180.43, 453.45 173.45, 470.23 153.04 M444.38 188.87 C449.77 180.44, 454.68 175.77, 471.28 157.92 M444.38 188.87 C451 180.93, 459.05 173.35, 471.28 157.92 M450.68 187.72 C459.67 180.6, 464.21 171.59, 470.36 165.08 M450.68 187.72 C456.5 182.15, 461.12 174.2, 470.36 165.08" stroke="#ffec99" stroke-width="0.5" fill="none"></path><path d="M32 0 M32 0 C188.33 0.84, 342.5 0.93, 437.71 0 M32 0 C122.34 -0.74, 211.43 -1.24, 437.71 0 M437.71 0 C459.88 -1.58, 467.96 10.73, 469.71 32 M437.71 0 C460.37 -0.35, 467.54 9.58, 469.71 32 M469.71 32 C472.61 56.02, 468.9 85.2, 469.71 156.57 M469.71 32 C469.9 67.13, 469.67 104.04, 469.71 156.57 M469.71 156.57 C471.02 176.51, 458.36 187.12, 437.71 188.57 M469.71 156.57 C469.23 179.13, 459.4 187.48, 437.71 188.57 M437.71 188.57 C325.5 190.7, 212.95 188.93, 32 188.57 M437.71 188.57 C336.29 190.52, 235.83 190.63, 32 188.57 M32 188.57 C10.33 189.57, -1.95 178.9, 0 156.57 M32 188.57 C9.71 187.84, 0.01 179.11, 0 156.57 M0 156.57 C-0.64 113.81, 0.54 72.96, 0 32 M0 156.57 C-0.59 125.34, 0.25 94.7, 0 32 M0 32 C-0.54 9.15, 11.4 -0.15, 32 0 M0 32 C1.52 10.95, 8.48 1.76, 32 0" stroke="#1e1e1e" stroke-width="1" fill="none"></path></g><g transform="translate(695.6190563383556 74.57144601004467) rotate(0 93.91113281250006 34.5)"><text x="0" y="0" font-family="Helvetica, Segoe UI Emoji" font-size="20px" fill="#1e1e1e" text-anchor="start" style="white-space: pre;" direction="ltr" dominant-baseline="text-before-edge">Staging:</text><text x="0" y="23" font-family="Helvetica, Segoe UI Emoji" font-size="20px" fill="#1e1e1e" text-anchor="start" style="white-space: pre;" direction="ltr" dominant-baseline="text-before-edge">- Linting</text><text x="0" y="46" font-family="Helvetica, Segoe UI Emoji" font-size="20px" fill="#1e1e1e" text-anchor="start" style="white-space: pre;" direction="ltr" dominant-baseline="text-before-edge">- Tests (Test-Gruppe)</text></g><g stroke-linecap="round"><g transform="translate(403.14283098493297 92.28567940848217) rotate(0 92.52213326639361 -0.3199254061241845)"><path d="M-0.59 -0.7 C30.54 -0.74, 154.64 -0.44, 185.63 -0.44 M1.3 1.55 C32.41 1.18, 154.38 -1.46, 184.94 -2.19" stroke="#1e1e1e" stroke-width="1" fill="none"></path></g><g transform="translate(403.14283098493297 92.28567940848217) rotate(0 92.52213326639361 -0.3199254061241845)"><path d="M155.83 9.52 C163.92 6.93, 169.24 3.06, 184.65 -2.71 M156.74 9.67 C166.36 4.41, 173.68 1.1, 184.28 -2.82" stroke="#1e1e1e" stroke-width="1" fill="none"></path></g><g transform="translate(403.14283098493297 92.28567940848217) rotate(0 92.52213326639361 -0.3199254061241845)"><path d="M155.37 -11 C163.53 -9.37, 168.94 -9.03, 184.65 -2.71 M156.28 -10.85 C165.92 -9.7, 173.38 -6.62, 184.28 -2.82" stroke="#1e1e1e" stroke-width="1" fill="none"></path></g></g><mask></mask><g transform="translate(419.142848423549 69.42853655133928) rotate(0 70.0341796875 11.5)"><text x="0" y="0" font-family="Helvetica, Segoe UI Emoji" font-size="20px" fill="#1e1e1e" text-anchor="start" style="white-space: pre;" direction="ltr" dominant-baseline="text-before-edge">Push → Branch</text></g><g stroke-linecap="round" transform="translate(620.2856881277902 340.28568812779014) rotate(0 262.857186453683 161.71428135463168)"><path d="M19.26 154.55 C19.26 154.55, 19.26 154.55, 19.26 154.55 M19.26 154.55 C19.26 154.55, 19.26 154.55, 19.26 154.55 M17.69 162.45 C23.2 156.38, 26.73 152.36, 36.06 141.32 M17.69 162.45 C23.79 155.8, 29.86 147.26, 36.06 141.32 M18.74 167.34 C28.31 155.2, 39.03 147.74, 47.61 134.13 M18.74 167.34 C29.5 155.68, 41.12 142.96, 47.61 134.13 M21.1 170.72 C34.3 152.56, 48.37 138.5, 59.15 126.95 M21.1 170.72 C31.09 159.34, 39.22 149.95, 59.15 126.95 M23.46 174.1 C43.1 151.97, 59.28 132.86, 70.7 119.76 M23.46 174.1 C41.57 151.57, 60.59 130.05, 70.7 119.76 M26.48 176.72 C44.94 155.34, 67.45 128.16, 82.25 112.57 M26.48 176.72 C42.29 158.45, 58.03 139.49, 82.25 112.57 M30.16 178.59 C46.33 159.49, 61.06 143.59, 93.8 105.39 M30.16 178.59 C48.28 158.14, 65.02 136.29, 93.8 105.39 M33.18 181.22 C52.52 159.96, 68.28 141.99, 105.34 98.2 M33.18 181.22 C55.22 156.07, 76.48 131.27, 105.34 98.2 M36.2 183.84 C57.46 158.79, 77.92 134.95, 116.89 91.01 M36.2 183.84 C60.75 156.64, 85.42 126.98, 116.89 91.01 M39.87 185.71 C71.94 147.45, 106.78 111.45, 127.78 84.58 M39.87 185.71 C61.78 158.57, 85.3 134.04, 127.78 84.58 M42.89 188.33 C77.24 150.17, 107.05 111, 139.33 77.39 M42.89 188.33 C73.37 154.35, 102.14 118.86, 139.33 77.39 M45.91 190.96 C72.96 157.39, 98.3 127.86, 150.88 70.21 M45.91 190.96 C83.7 146.58, 121.93 101.74, 150.88 70.21 M49.58 192.83 C89.45 146.87, 131.75 98.14, 162.43 63.02 M49.58 192.83 C91.96 144.58, 134.92 94.46, 162.43 63.02 M53.26 194.7 C97.69 143.4, 141.46 93.47, 173.97 55.83 M53.26 194.7 C98.11 142.87, 142.16 90.35, 173.97 55.83 M56.28 197.32 C96.85 149.37, 139.49 104.93, 185.52 48.64 M56.28 197.32 C101.75 144.46, 149.9 90.49, 185.52 48.64 M59.95 199.19 C94.97 158.88, 133.46 115.31, 197.07 41.46 M59.95 199.19 C103.58 149.72, 148.35 98.41, 197.07 41.46 M63.63 201.06 C115.87 139.52, 166.74 80.92, 209.27 33.52 M63.63 201.06 C112.88 142.8, 162.09 87.91, 209.27 33.52 M66.65 203.69 C119.64 141.79, 175.19 78.39, 219.51 27.84 M66.65 203.69 C120.97 140.17, 175.97 77.57, 219.51 27.84 M70.32 205.55 C127.3 138.46, 185.66 74.1, 229.09 22.92 M70.32 205.55 C130.35 136.39, 188.61 68.96, 229.09 22.92 M74 207.42 C121.07 151.42, 165.15 99.2, 239.32 17.24 M74 207.42 C130.21 142.51, 186.66 78.22, 239.32 17.24 M77.01 210.05 C114.39 166.75, 151.73 124.64, 245.62 16.09 M77.01 210.05 C135.27 142, 195.46 73.51, 245.62 16.09 M80.69 211.92 C134.91 152.59, 187.21 91.67, 251.92 14.94 M80.69 211.92 C114.09 169.99, 149.81 128.91, 251.92 14.94 M84.36 213.79 C127.76 163.42, 173.08 115.04, 258.88 13.03 M84.36 213.79 C144.53 144.2, 206.39 74.26, 258.88 13.03 M87.38 216.41 C128.21 168.02, 168.72 122.75, 265.17 11.89 M87.38 216.41 C126.45 170.56, 166.91 124.82, 265.17 11.89 M91.06 218.28 C136.88 165.08, 184.43 111.82, 269.51 13 M91.06 218.28 C135.06 167.46, 179.06 116.61, 269.51 13 M94.73 220.15 C160.74 143.4, 226.32 68.95, 275.8 11.85 M94.73 220.15 C157.8 148.26, 221.78 74.64, 275.8 11.85 M97.75 222.78 C148.66 162.75, 199.77 103.94, 279.48 13.72 M97.75 222.78 C159.17 152.89, 218.49 83.03, 279.48 13.72 M101.43 224.64 C137.91 181.47, 175.95 136.14, 283.15 15.59 M101.43 224.64 C147.37 173.28, 191.03 123.68, 283.15 15.59 M105.1 226.51 C176.28 146.87, 245.58 66.02, 286.83 17.46 M105.1 226.51 C158.43 165.92, 211.75 103.64, 286.83 17.46 M108.12 229.14 C179.43 147.54, 250.97 64.43, 291.16 18.57 M108.12 229.14 C156.27 172.85, 205.12 116.85, 291.16 18.57 M111.79 231.01 C170.44 165.1, 225.31 99.83, 294.84 20.44 M111.79 231.01 C151.94 184.52, 192.4 136.39, 294.84 20.44 M115.47 232.88 C167.93 172.89, 216.8 116.04, 298.51 22.31 M115.47 232.88 C168.17 171.25, 223.5 109.59, 298.51 22.31 M118.49 235.5 C158.15 187.78, 199.35 140.38, 302.18 24.18 M118.49 235.5 C157.08 188.19, 198.18 142.7, 302.18 24.18 M122.16 237.37 C159.34 195.12, 196.62 151.98, 305.2 26.81 M122.16 237.37 C175.94 173.38, 230.37 111.77, 305.2 26.81 M125.84 239.24 C190.26 163.9, 253.96 91.66, 308.88 28.68 M125.84 239.24 C195.8 162.45, 262.54 84.86, 308.88 28.68 M129.51 241.11 C170.19 195.31, 213.77 147.31, 312.55 30.55 M129.51 241.11 C194.97 167.42, 258 94.4, 312.55 30.55 M132.53 243.73 C197.51 168.32, 265.13 95.05, 315.57 33.17 M132.53 243.73 C205.34 163.62, 275.09 82.85, 315.57 33.17 M136.21 245.6 C206.37 167.3, 272.78 87.17, 319.25 35.04 M136.21 245.6 C178.29 196.61, 219.62 148.33, 319.25 35.04 M139.88 247.47 C205.45 169.19, 271.09 93.26, 322.92 36.91 M139.88 247.47 C208.71 169.59, 275.99 91.68, 322.92 36.91 M142.9 250.1 C178.65 208.08, 216.98 166.04, 325.94 39.53 M142.9 250.1 C182.4 206.4, 221.7 161.51, 325.94 39.53 M146.58 251.97 C204.43 185.52, 263.85 116.6, 329.62 41.4 M146.58 251.97 C187.54 204.95, 227.35 158.22, 329.62 41.4 M150.25 253.84 C191.55 208.46, 233.77 158.99, 333.29 43.27 M150.25 253.84 C200.94 194.28, 254.32 132.56, 333.29 43.27 M153.27 256.46 C196.97 202.39, 245.43 150.01, 336.31 45.9 M153.27 256.46 C201.42 201.9, 249.95 146.64, 336.31 45.9 M156.94 258.33 C213.79 194.2, 265.91 130.48, 339.98 47.77 M156.94 258.33 C218.8 186.5, 281.8 114.67, 339.98 47.77 M160.62 260.2 C232.23 175.07, 308.14 92.05, 343.66 49.64 M160.62 260.2 C199.4 216.63, 236.32 173.13, 343.66 49.64 M163.64 262.82 C204.92 213.11, 248.07 164.38, 346.68 52.26 M163.64 262.82 C231.68 185.09, 298.94 108.12, 346.68 52.26 M167.31 264.69 C214.86 206.33, 266.54 148.86, 350.35 54.13 M167.31 264.69 C233 187.61, 297.22 112.97, 350.35 54.13 M170.99 266.56 C238.78 190.98, 306.2 112, 354.03 56 M170.99 266.56 C215.52 213.95, 262.3 160.9, 354.03 56 M174.01 269.19 C217.64 222.61, 256.8 173.52, 357.05 58.62 M174.01 269.19 C219.9 217.67, 264.52 166.7, 357.05 58.62 M177.68 271.06 C216.74 227.91, 254.58 183.19, 360.72 60.49 M177.68 271.06 C250.58 187.44, 322.51 103.18, 360.72 60.49 M181.36 272.93 C224.94 220.55, 272.78 168.24, 364.4 62.36 M181.36 272.93 C252.1 191.12, 324.14 107.41, 364.4 62.36 M184.38 275.55 C220.23 235.19, 259.31 191.94, 367.42 64.99 M184.38 275.55 C239.93 213.86, 294.23 150.25, 367.42 64.99 M188.05 277.42 C260.89 196.28, 330.58 114.09, 371.09 66.86 M188.05 277.42 C247.38 209.9, 306.09 142.65, 371.09 66.86 M191.72 279.29 C252.5 207.06, 314.63 138.3, 374.77 68.73 M191.72 279.29 C256.59 203.95, 323.56 127.33, 374.77 68.73 M194.74 281.91 C253.81 213.88, 311.97 145.22, 377.78 71.35 M194.74 281.91 C261.61 203.67, 329.33 125.51, 377.78 71.35 M198.42 283.78 C263.92 211.79, 326.28 138.87, 381.46 73.22 M198.42 283.78 C251.4 222, 304.54 159.21, 381.46 73.22 M202.09 285.65 C240.66 239.04, 278.25 195.76, 384.48 75.84 M202.09 285.65 C249.63 230.11, 296.99 176.07, 384.48 75.84 M205.11 288.28 C265.34 220.68, 325.56 151, 388.15 77.71 M205.11 288.28 C261.28 226.41, 316.31 162.65, 388.15 77.71 M208.79 290.15 C251.04 242.22, 290.97 195.63, 391.83 79.58 M208.79 290.15 C269.45 222.02, 330.26 151.72, 391.83 79.58 M212.46 292.02 C268.81 229.55, 321.17 166.44, 394.85 82.21 M212.46 292.02 C266.27 231.88, 321.18 169.6, 394.85 82.21 M215.48 294.64 C286.32 211.68, 356.13 130.39, 398.52 84.08 M215.48 294.64 C276.08 224.88, 336.31 156.31, 398.52 84.08 M219.16 296.51 C267.74 244.98, 314.28 190.31, 402.2 85.95 M219.16 296.51 C273.49 234.79, 329.01 173.43, 402.2 85.95 M222.83 298.38 C291.5 217.3, 363.62 133.51, 405.22 88.57 M222.83 298.38 C292.64 217.56, 362.34 137.86, 405.22 88.57 M225.85 301 C281.41 234.95, 337.57 170.29, 408.89 90.44 M225.85 301 C266.31 257.63, 306.24 211.49, 408.89 90.44 M229.52 302.87 C293.54 231.18, 354.14 156.37, 412.57 92.31 M229.52 302.87 C273.78 250.85, 319.09 199.73, 412.57 92.31 M233.2 304.74 C294.51 233.15, 357.26 158.63, 415.58 94.93 M233.2 304.74 C285.44 245.84, 336.52 186.48, 415.58 94.93 M236.87 306.61 C281.67 255.51, 324.01 206.88, 419.26 96.8 M236.87 306.61 C285.85 251.7, 332.36 197.06, 419.26 96.8 M240.55 308.48 C309.79 229.58, 377.26 152.37, 422.93 98.67 M240.55 308.48 C279.39 263.03, 318.51 218.05, 422.93 98.67 M244.88 309.6 C294.44 253.96, 342.09 196.63, 425.95 101.3 M244.88 309.6 C314.73 228.33, 384.19 146.52, 425.95 101.3 M248.56 311.47 C315.88 236.25, 381.14 159.98, 429.63 103.17 M248.56 311.47 C293.36 261.13, 336.26 211.74, 429.63 103.17 M252.89 312.58 C313.46 243.13, 372.72 175.07, 433.3 105.04 M252.89 312.58 C320.27 235.72, 386.93 157.47, 433.3 105.04 M257.22 313.7 C300.23 264.51, 341.44 218.87, 436.32 107.66 M257.22 313.7 C311.53 252.83, 364.57 193.29, 436.32 107.66 M262.86 313.3 C316.04 252.59, 369.64 188.19, 440 109.53 M262.86 313.3 C330.62 236.48, 396.63 159.11, 440 109.53 M267.85 313.66 C308.54 264.11, 352.3 216.81, 443.01 112.15 M267.85 313.66 C306.53 271.15, 343.98 227.79, 443.01 112.15 M272.18 314.78 C338.62 242.32, 402.64 167.17, 446.69 114.02 M272.18 314.78 C334.99 242.38, 398.01 170.36, 446.69 114.02 M282.41 309.1 C347.58 233.85, 413.42 159.29, 450.36 115.89 M282.41 309.1 C338.31 245.26, 393.37 183.15, 450.36 115.89 M291.99 304.18 C343.77 243.56, 396.11 186.92, 453.38 118.52 M291.99 304.18 C339.6 252.1, 385.27 198.74, 453.38 118.52 M301.57 299.25 C337.41 258.48, 374.51 215.47, 457.06 120.39 M301.57 299.25 C345.48 248.18, 388 198.94, 457.06 120.39 M308.53 297.35 C340.59 256.45, 372.96 221.11, 460.73 122.26 M308.53 297.35 C358.11 239.01, 407.27 182.63, 460.73 122.26 M320.08 290.16 C359.77 243.7, 401.94 196.71, 463.75 124.88 M320.08 290.16 C348.85 255.98, 379.96 220.88, 463.75 124.88 M330.97 283.73 C380.19 230.13, 427.56 171.96, 467.43 126.75 M330.97 283.73 C364.33 246.64, 397.85 208.27, 467.43 126.75 M342.51 276.54 C391.26 222.79, 442.47 163.07, 471.1 128.62 M342.51 276.54 C389.36 221.1, 437.82 165.92, 471.1 128.62 M354.06 269.36 C387.14 229.2, 421.37 190.66, 474.12 131.24 M354.06 269.36 C378.28 240.16, 403.27 212.41, 474.12 131.24 M364.95 262.92 C400.34 221.68, 435.41 180.17, 477.8 133.11 M364.95 262.92 C399.77 223.64, 435.33 182.27, 477.8 133.11 M376.5 255.74 C420.25 205.86, 460.61 159.4, 481.47 134.98 M376.5 255.74 C397.18 231.58, 418.41 206.28, 481.47 134.98 M388.05 248.55 C410.81 220.94, 436.16 193.46, 484.49 137.61 M388.05 248.55 C416.54 217.22, 443.17 186.41, 484.49 137.61 M399.6 241.36 C426.67 206.42, 455.96 174.26, 488.16 139.48 M399.6 241.36 C419.6 219.79, 437.87 197.61, 488.16 139.48 M410.49 234.93 C428.95 210.49, 447.51 190.65, 491.18 142.1 M410.49 234.93 C430.46 212.63, 449.63 188.54, 491.18 142.1 M422.04 227.74 C448.7 196.97, 474.76 163.32, 494.2 144.73 M422.04 227.74 C436.24 210.99, 451.57 193.81, 494.2 144.73 M433.58 220.56 C455.14 196.08, 478.47 168.58, 497.88 146.59 M433.58 220.56 C448.86 201.6, 465.29 184.81, 497.88 146.59 M444.47 214.12 C459.21 195.28, 475.01 177.71, 500.9 149.22 M444.47 214.12 C466.37 189.26, 487.5 164.84, 500.9 149.22 M456.02 206.94 C471.21 186.87, 487.49 169.62, 503.91 151.84 M456.02 206.94 C469.21 194.03, 479.89 179.66, 503.91 151.84 M467.57 199.75 C483.55 184.36, 495.46 167.25, 506.93 154.47 M467.57 199.75 C479.48 185.29, 492.17 172.48, 506.93 154.47 M481.74 189.54 C489.6 178.61, 501.04 165.85, 508.64 158.6 M481.74 189.54 C490.33 178.66, 499.5 168.82, 508.64 158.6 M496.57 178.58 C499.77 174.72, 505.12 166.29, 510.35 162.73 M496.57 178.58 C500.08 174.41, 502.52 171.63, 510.35 162.73" stroke="#ffec99" stroke-width="0.5" fill="none"></path><path d="M328.75 40.5 M328.75 40.5 C363.18 62.46, 397.21 83.59, 459.96 121.5 M328.75 40.5 C363.58 62.75, 397.88 84.41, 459.96 121.5 M459.96 121.5 C524.43 161.07, 525.76 162.87, 459.96 202.5 M459.96 121.5 C525.11 161.66, 523.9 160.97, 459.96 202.5 M459.96 202.5 C423.49 226.15, 389.38 247.08, 328.75 282.93 M459.96 202.5 C411.25 232.7, 363.85 261.97, 328.75 282.93 M328.75 282.93 C262.98 321.48, 262.24 324.95, 197.25 282.93 M328.75 282.93 C262.98 324.45, 264.76 321.77, 197.25 282.93 M197.25 282.93 C160.86 261.89, 120.3 235.74, 65.75 202.5 M197.25 282.93 C145.98 251.39, 94.1 219.83, 65.75 202.5 M65.75 202.5 C-0.94 161.37, -1.42 163.37, 65.75 121.5 M65.75 202.5 C1.64 160.35, 2.23 163.34, 65.75 121.5 M65.75 121.5 C93.8 104.89, 123.28 88.18, 197.25 40.5 M65.75 121.5 C96.61 101.9, 128.9 80.45, 197.25 40.5 M197.25 40.5 C261.7 -1.39, 264.78 1.29, 328.75 40.5 M197.25 40.5 C264.01 0.66, 261.26 -0.75, 328.75 40.5" stroke="#1e1e1e" stroke-width="1" fill="none"></path></g><g transform="translate(740.2856881277903 467.14290073939725) rotate(0 152.2900390625 34.5)"><text x="0" y="0" font-family="Helvetica, Segoe UI Emoji" font-size="20px" fill="#1e1e1e" text-anchor="start" style="white-space: pre;" direction="ltr" dominant-baseline="text-before-edge">Pull Request:</text><text x="0" y="23" font-family="Helvetica, Segoe UI Emoji" font-size="20px" fill="#1e1e1e" text-anchor="start" style="white-space: pre;" direction="ltr" dominant-baseline="text-before-edge">- Tests, ob Merge sauber integriert</text><text x="0" y="46" font-family="Helvetica, Segoe UI Emoji" font-size="20px" fill="#1e1e1e" text-anchor="start" style="white-space: pre;" direction="ltr" dominant-baseline="text-before-edge">- </text></g><g stroke-linecap="round"><g transform="translate(880.8571515764511 208.8571166992187) rotate(0 -0.36572492071979923 67.52008597061439)"><path d="M-0.67 -0.24 C-0.75 22.42, -0.97 112.46, -1.02 135.28 M1.18 -1.41 C1 21.45, -1.43 113.75, -1.91 136.45" stroke="#1e1e1e" stroke-width="1" fill="none"></path></g><g transform="translate(880.8571515764511 208.8571166992187) rotate(0 -0.36572492071979923 67.52008597061439)"><path d="M-11.89 108.22 C-10.43 115.47, -5.61 121.8, -3.15 135.89 M-11.34 107.93 C-9.98 113.52, -7.16 120.68, -1.69 137.04" stroke="#1e1e1e" stroke-width="1" fill="none"></path></g><g transform="translate(880.8571515764511 208.8571166992187) rotate(0 -0.36572492071979923 67.52008597061439)"><path d="M8.63 108.71 C4.93 115.72, 4.58 121.92, -3.15 135.89 M9.18 108.42 C5.91 113.75, 4.1 120.79, -1.69 137.04" stroke="#1e1e1e" stroke-width="1" fill="none"></path></g></g><mask></mask><g transform="translate(893.4285627092631 254.57140241350436) rotate(0 59.4775390625 11.5)"><text x="0" y="0" font-family="Helvetica, Segoe UI Emoji" font-size="20px" fill="#1e1e1e" text-anchor="start" style="white-space: pre;" direction="ltr" dominant-baseline="text-before-edge">Pull Request </text></g><g stroke-linecap="round" transform="translate(32.85723005022322 406.5715244838171) rotate(0 251.99999128069194 122.2857230050223)"><path d="M7.86 8.16 C7.86 8.16, 7.86 8.16, 7.86 8.16 M7.86 8.16 C7.86 8.16, 7.86 8.16, 7.86 8.16 M3.66 19.09 C7.7 14.6, 12.71 8.08, 18.1 2.48 M3.66 19.09 C7.32 15.22, 11.01 11.11, 18.1 2.48 M2.75 26.24 C11.59 16.46, 20.77 8.13, 24.4 1.33 M2.75 26.24 C8.09 17.77, 15.17 11.94, 24.4 1.33 M2.48 32.64 C10.9 24.33, 16.21 14.46, 30.7 0.18 M2.48 32.64 C13.89 20.4, 25.27 5.99, 30.7 0.18 M2.88 38.28 C11.51 28.15, 16.9 20.28, 34.37 2.05 M2.88 38.28 C9.32 29.74, 17.01 21.92, 34.37 2.05 M2.62 44.68 C11.91 34.67, 18.59 29.24, 39.36 2.41 M2.62 44.68 C13.53 31.81, 23.01 20.14, 39.36 2.41 M2.36 51.07 C18.62 35.43, 34.12 17.53, 45 2.02 M2.36 51.07 C17.77 34.2, 31.06 16.3, 45 2.02 M2.75 56.72 C16.46 44.13, 27.55 28.46, 49.99 2.38 M2.75 56.72 C16.9 40.77, 29.8 25.84, 49.99 2.38 M2.49 63.11 C14.93 49, 25.89 34.73, 55.63 1.98 M2.49 63.11 C17.55 44.75, 34.04 28.03, 55.63 1.98 M2.23 69.51 C18.28 50.42, 37.88 29.91, 60.62 2.34 M2.23 69.51 C24.38 45.53, 45.31 21.71, 60.62 2.34 M2.62 75.16 C27.43 45.34, 52.14 19.94, 66.26 1.95 M2.62 75.16 C21.09 53.79, 38.97 33.21, 66.26 1.95 M2.36 81.55 C17 64.73, 30.89 49.05, 71.25 2.31 M2.36 81.55 C30.27 49.47, 56.51 17.08, 71.25 2.31 M2.76 87.2 C20.47 62.92, 41.59 40.55, 76.89 1.91 M2.76 87.2 C20.1 65.79, 39.09 45.39, 76.89 1.91 M2.49 93.59 C21.85 73.12, 38.67 50.93, 81.88 2.27 M2.49 93.59 C22.79 71.79, 41.17 49.38, 81.88 2.27 M2.23 99.99 C21.29 76.82, 41.37 53.02, 87.52 1.88 M2.23 99.99 C29.31 70.61, 54.36 41.42, 87.52 1.88 M2.63 105.64 C28.92 74.42, 53.96 47.21, 92.51 2.24 M2.63 105.64 C28.86 78.62, 53.11 51.26, 92.51 2.24 M2.37 112.03 C34.19 72.93, 67.81 34.51, 98.15 1.85 M2.37 112.03 C23.32 87.64, 45.21 61.24, 98.15 1.85 M2.1 118.43 C26.24 93.52, 46.83 66.95, 103.14 2.21 M2.1 118.43 C25.89 93.25, 50.52 66, 103.14 2.21 M2.5 124.07 C41.59 81.35, 76.64 37.48, 108.78 1.81 M2.5 124.07 C30.84 90.95, 60.21 57.63, 108.78 1.81 M2.24 130.47 C39.14 85.53, 78.07 42.08, 113.77 2.17 M2.24 130.47 C27.52 104.51, 49.73 78.54, 113.77 2.17 M2.63 136.11 C43.6 88.04, 80.36 43.39, 119.41 1.78 M2.63 136.11 C38.63 95.09, 75.4 53.14, 119.41 1.78 M2.37 142.51 C43.51 95.73, 80.73 50.03, 124.4 2.14 M2.37 142.51 C29.2 111.48, 55.4 79.88, 124.4 2.14 M2.11 148.91 C30.72 113.34, 62.32 77.03, 130.04 1.74 M2.11 148.91 C37.32 106.66, 72.86 68.09, 130.04 1.74 M2.5 154.55 C39.18 111.19, 77.85 66.03, 135.03 2.1 M2.5 154.55 C35.07 116.84, 67.95 78.5, 135.03 2.1 M2.24 160.95 C50.38 105.25, 96.72 54.6, 140.67 1.71 M2.24 160.95 C47.72 107.19, 92.45 55.5, 140.67 1.71 M1.98 167.35 C44.74 118.6, 86.33 69.04, 145.66 2.07 M1.98 167.35 C33.62 129.9, 66.32 94.14, 145.66 2.07 M2.38 172.99 C30.58 138.9, 60.24 104.79, 150.65 2.43 M2.38 172.99 C48.97 119.37, 94.02 66.7, 150.65 2.43 M2.11 179.39 C40.24 133.66, 82.19 88.48, 156.29 2.03 M2.11 179.39 C33.24 143.82, 65.81 108.17, 156.29 2.03 M2.51 185.03 C53.26 127.79, 100.1 73.03, 161.28 2.39 M2.51 185.03 C46.16 133.84, 89.22 83.99, 161.28 2.39 M2.25 191.43 C45.9 141.17, 91.91 87.44, 166.92 2 M2.25 191.43 C36.5 152.43, 69.9 113.04, 166.92 2 M1.99 197.83 C43.97 151.19, 83.19 103.91, 171.91 2.36 M1.99 197.83 C59.99 131.07, 118.29 65.05, 171.91 2.36 M2.38 203.47 C46.7 152.78, 91.68 102.39, 177.55 1.96 M2.38 203.47 C36.91 163.14, 73.21 122.21, 177.55 1.96 M2.12 209.87 C49.64 154.58, 100.86 98.41, 182.54 2.32 M2.12 209.87 C52.33 152.48, 101.18 95.92, 182.54 2.32 M3.17 214.76 C60.45 150.85, 115.59 87.29, 188.18 1.93 M3.17 214.76 C56.91 149.98, 112.59 85.61, 188.18 1.93 M3.56 220.4 C73.26 136.15, 148.37 53.37, 193.17 2.29 M3.56 220.4 C53.57 160.58, 105.78 100.82, 193.17 2.29 M2.65 227.55 C67.59 154.91, 131.75 79.88, 198.81 1.9 M2.65 227.55 C72.76 149.3, 141.78 70.27, 198.81 1.9 M4.35 231.69 C60.86 168.61, 113 106.88, 203.8 2.26 M4.35 231.69 C45.85 185.47, 86.38 138.36, 203.8 2.26 M7.37 234.31 C59.16 179.26, 106.01 123.04, 209.44 1.86 M7.37 234.31 C81.98 149.22, 156.38 63.41, 209.44 1.86 M10.39 236.94 C75.23 161.93, 141.07 86.56, 214.43 2.22 M10.39 236.94 C85.34 149.72, 161.62 62.5, 214.43 2.22 M12.75 240.31 C90.11 151.39, 166.79 64.09, 220.07 1.83 M12.75 240.31 C75.85 170.2, 136.84 100.5, 220.07 1.83 M17.09 241.43 C62.2 186.75, 109.97 132.04, 225.06 2.19 M17.09 241.43 C83.12 166.05, 148.44 90.51, 225.06 2.19 M20.76 243.3 C68.04 190.42, 114.87 135.72, 230.7 1.79 M20.76 243.3 C70.96 185.48, 121 129.01, 230.7 1.79 M25.09 244.41 C103.73 151.87, 185.34 59.35, 235.69 2.15 M25.09 244.41 C74.59 185.61, 124.38 126.83, 235.69 2.15 M30.08 244.77 C97.83 163.71, 169.52 83.27, 241.33 1.76 M30.08 244.77 C78.16 188.44, 125.88 133.07, 241.33 1.76 M33.75 246.64 C96.16 174.62, 156.48 103.31, 246.32 2.12 M33.75 246.64 C114.74 153.25, 196.09 59.45, 246.32 2.12 M39.4 246.25 C87.29 194.21, 131.87 140.49, 251.96 1.72 M39.4 246.25 C97.31 180.11, 156.55 112.69, 251.96 1.72 M44.38 246.61 C118.11 160.15, 193.53 73.56, 256.95 2.08 M44.38 246.61 C95.79 188.09, 146.48 130.11, 256.95 2.08 M50.03 246.21 C94.74 195.21, 140.15 144.58, 262.59 1.69 M50.03 246.21 C116.18 170.08, 180.54 96.71, 262.59 1.69 M55.01 246.57 C115.98 175.69, 175.78 108.51, 267.58 2.05 M55.01 246.57 C128.68 163.53, 202.24 80.44, 267.58 2.05 M60.66 246.18 C112.25 188.75, 162.15 130.47, 272.56 2.41 M60.66 246.18 C103.37 196.89, 147.26 147.76, 272.56 2.41 M65.64 246.54 C124.66 179.45, 181.35 111.26, 278.21 2.01 M65.64 246.54 C124.12 178.11, 183.3 110.12, 278.21 2.01 M71.29 246.15 C124.06 184.74, 176.53 124.28, 283.19 2.37 M71.29 246.15 C117.06 193.94, 161.8 141.85, 283.19 2.37 M76.27 246.51 C129.77 183.66, 182.94 121.24, 288.84 1.98 M76.27 246.51 C134.76 179.23, 193.87 111.6, 288.84 1.98 M81.92 246.11 C158.27 156.77, 238.78 65.43, 293.82 2.34 M81.92 246.11 C147.45 173.79, 210.57 101.46, 293.82 2.34 M86.9 246.47 C136.42 191.32, 184.94 133.67, 299.47 1.94 M86.9 246.47 C130.34 194.43, 176.71 141.74, 299.47 1.94 M92.55 246.08 C166.42 162.28, 242.47 75.13, 304.45 2.3 M92.55 246.08 C176.37 150.14, 259.82 53.86, 304.45 2.3 M97.53 246.44 C164.88 170.13, 230.21 93, 310.1 1.91 M97.53 246.44 C144.24 194.78, 191.43 141.25, 310.1 1.91 M103.18 246.04 C174.41 167.48, 245.09 86.47, 315.08 2.27 M103.18 246.04 C181.85 154.45, 261.41 61.92, 315.08 2.27 M108.16 246.4 C183.4 161.6, 256.19 77.61, 320.73 1.88 M108.16 246.4 C164.03 181.43, 218.56 119.03, 320.73 1.88 M113.81 246.01 C168.89 182.3, 224.57 120.12, 325.71 2.24 M113.81 246.01 C168.28 181.47, 224.04 116.71, 325.71 2.24 M118.79 246.37 C170.14 189.29, 219.68 132.41, 331.36 1.84 M118.79 246.37 C192.32 159.52, 267.09 73.1, 331.36 1.84 M124.44 245.97 C186.33 177.3, 247.55 106.43, 336.34 2.2 M124.44 245.97 C167.71 194.85, 213.07 143.03, 336.34 2.2 M129.42 246.33 C176.04 192.78, 221.62 140.03, 341.99 1.81 M129.42 246.33 C207.58 155.27, 285.88 64.8, 341.99 1.81 M134.41 246.69 C213.99 155.47, 291.36 65.67, 346.97 2.17 M134.41 246.69 C207.3 160.2, 281.45 75.52, 346.97 2.17 M140.05 246.3 C184.31 194.1, 230.72 142.34, 352.62 1.77 M140.05 246.3 C186.36 193.53, 232.51 140.59, 352.62 1.77 M145.04 246.66 C199.85 182.47, 255.68 117.15, 357.6 2.13 M145.04 246.66 C212.58 167.35, 283.07 87.77, 357.6 2.13 M150.68 246.26 C208.42 182.79, 266.49 116.53, 363.25 1.74 M150.68 246.26 C205.26 184.94, 260.31 121.36, 363.25 1.74 M155.67 246.62 C226.7 165.17, 296.88 85.75, 368.23 2.1 M155.67 246.62 C230.59 158.47, 306.47 72.19, 368.23 2.1 M161.31 246.23 C225.82 168.08, 293.24 92.91, 373.88 1.7 M161.31 246.23 C222.96 175.11, 285.01 103.08, 373.88 1.7 M166.3 246.59 C239.86 162.68, 310.93 79.49, 378.86 2.06 M166.3 246.59 C248.17 153.43, 330.92 57.53, 378.86 2.06 M171.94 246.19 C254.18 152.67, 335.72 55.06, 383.85 2.42 M171.94 246.19 C251.26 153.61, 331.19 60.72, 383.85 2.42 M176.93 246.55 C229.04 186.45, 282.79 127.09, 389.49 2.03 M176.93 246.55 C248.31 165.19, 318.49 84.82, 389.49 2.03 M182.57 246.16 C234.09 186.73, 283.59 129.22, 394.48 2.39 M182.57 246.16 C228.19 195.11, 273.34 143.23, 394.48 2.39 M187.56 246.52 C238.59 190.54, 285.48 134.95, 400.12 1.99 M187.56 246.52 C235.11 191.36, 282.86 136.24, 400.12 1.99 M193.2 246.13 C260.08 168, 327.37 89.4, 405.11 2.35 M193.2 246.13 C266.14 162.19, 338.48 79.59, 405.11 2.35 M198.19 246.49 C253.7 184.67, 309.09 120.24, 410.75 1.96 M198.19 246.49 C252.57 179.76, 309.5 115.86, 410.75 1.96 M203.83 246.09 C282.3 157.24, 361.57 68.65, 415.74 2.32 M203.83 246.09 C281.37 159.48, 357.81 70.89, 415.74 2.32 M208.82 246.45 C273.85 170.45, 337.82 95.37, 421.38 1.93 M208.82 246.45 C295.67 148.95, 380.42 51.38, 421.38 1.93 M214.46 246.06 C265.98 188.03, 316.27 129.63, 426.37 2.29 M214.46 246.06 C278.51 170.78, 343.52 96.12, 426.37 2.29 M219.45 246.42 C298.86 156.09, 374.94 68.89, 432.01 1.89 M219.45 246.42 C285.79 169.64, 352.28 93.55, 432.01 1.89 M225.09 246.02 C287.91 176.12, 349.4 104.27, 437 2.25 M225.09 246.02 C283.17 179.66, 340.78 113.52, 437 2.25 M230.08 246.38 C313.49 150.13, 399.59 53.11, 442.64 1.86 M230.08 246.38 C280.32 188.15, 330.5 130.18, 442.64 1.86 M235.72 245.99 C317.73 153.88, 399.58 60.85, 447.63 2.22 M235.72 245.99 C317 150.66, 398.65 57.18, 447.63 2.22 M240.71 246.35 C285.05 196.71, 327.46 145.43, 453.27 1.82 M240.71 246.35 C318.46 158.06, 395.9 68.62, 453.27 1.82 M245.7 246.71 C305.04 179.24, 363.56 112.44, 458.26 2.18 M245.7 246.71 C295.78 189.21, 343.96 131.86, 458.26 2.18 M251.34 246.31 C331.5 153.37, 410.86 64.44, 463.9 1.79 M251.34 246.31 C297.85 194.73, 342.68 142.54, 463.9 1.79 M256.33 246.67 C306.83 190.19, 355.78 134.34, 468.89 2.15 M256.33 246.67 C306.34 189.48, 357.09 132.78, 468.89 2.15 M261.97 246.28 C323.2 174.74, 384.84 106, 474.53 1.75 M261.97 246.28 C318.06 180.73, 374.46 115.07, 474.53 1.75 M266.96 246.64 C314.14 188.41, 363.92 132.88, 480.18 1.36 M266.96 246.64 C326.22 179.82, 384.9 113.01, 480.18 1.36 M272.6 246.24 C346 160.43, 419.84 75.64, 484.51 2.47 M272.6 246.24 C347.69 162.05, 419.97 77.59, 484.51 2.47 M277.59 246.6 C346.42 164.1, 415 86.09, 488.84 3.59 M277.59 246.6 C331.61 182.26, 387.8 118.37, 488.84 3.59 M283.23 246.21 C359.82 160.38, 434.7 76.86, 492.51 5.46 M283.23 246.21 C329.3 194.86, 374.29 140.92, 492.51 5.46 M288.22 246.57 C354.22 171.64, 417.53 97.94, 495.53 8.08 M288.22 246.57 C367.62 155.94, 446 66.01, 495.53 8.08 M293.86 246.18 C357.4 172.81, 420.71 101.22, 497.9 11.46 M293.86 246.18 C337.68 197.84, 378.63 148.45, 497.9 11.46 M298.85 246.54 C347.96 189.2, 400.95 130.98, 500.92 14.08 M298.85 246.54 C346.45 193.29, 392.65 140.64, 500.92 14.08 M304.49 246.14 C344.82 200.88, 385.93 152.56, 502.62 18.22 M304.49 246.14 C377.85 161.3, 451.1 76.99, 502.62 18.22 M309.48 246.5 C373.62 172.26, 438.45 97.05, 503.02 23.86 M309.48 246.5 C364.12 183.33, 419.42 119.76, 503.02 23.86 M315.12 246.11 C366.78 188.3, 416.09 130.85, 504.07 28.75 M315.12 246.11 C373.34 176.96, 432.81 108.02, 504.07 28.75 M320.11 246.47 C366.59 194.67, 411.94 144.63, 505.77 32.88 M320.11 246.47 C364.45 195.43, 408.58 144.23, 505.77 32.88 M325.75 246.07 C380.16 187.02, 430.16 125.96, 505.51 39.28 M325.75 246.07 C362.49 201.83, 399.95 158.16, 505.51 39.28 M330.74 246.43 C393.23 173.32, 456.75 102.39, 505.25 45.68 M330.74 246.43 C376.38 192.22, 423.61 137.62, 505.25 45.68 M336.38 246.04 C386.4 189.53, 436.6 132.66, 505.65 51.32 M336.38 246.04 C394.24 179.52, 453.84 110.48, 505.65 51.32 M341.37 246.4 C406.12 174.14, 467.71 102.6, 505.38 57.72 M341.37 246.4 C400.5 178, 460.44 110.44, 505.38 57.72 M347.01 246 C392.23 191.98, 442.03 137.86, 505.12 64.12 M347.01 246 C407.05 175.93, 468.39 106.41, 505.12 64.12 M352 246.36 C395.5 194.1, 440.44 143.45, 505.52 69.76 M352 246.36 C409.7 178.9, 466.13 113.35, 505.52 69.76 M357.64 245.97 C406.17 191.78, 452.58 137.56, 505.26 76.16 M357.64 245.97 C406.74 191.66, 453.67 136.55, 505.26 76.16 M362.63 246.33 C419.46 182.05, 477.42 116.45, 505.65 81.8 M362.63 246.33 C420.16 181.43, 477.15 116.53, 505.65 81.8 M367.62 246.69 C421 187.56, 473.13 128.49, 505.39 88.2 M367.62 246.69 C408.23 200.2, 449.51 152.54, 505.39 88.2 M373.26 246.29 C409.75 201.66, 451.43 157.01, 505.13 94.6 M373.26 246.29 C423.22 190.19, 472.91 132.38, 505.13 94.6 M378.25 246.65 C418.68 200.86, 455.83 155.33, 505.52 100.24 M378.25 246.65 C406.68 214.2, 433.07 183.73, 505.52 100.24 M383.89 246.26 C419.67 203.79, 454.46 163.95, 505.26 106.64 M383.89 246.26 C421.14 204.94, 458.68 160.75, 505.26 106.64 M388.88 246.62 C427.63 201.39, 467.56 156.68, 505.66 112.28 M388.88 246.62 C422.57 206.47, 456.99 167.88, 505.66 112.28 M394.52 246.23 C435.09 200.49, 477.3 152.45, 505.39 118.68 M394.52 246.23 C420.89 217.3, 444.71 189.18, 505.39 118.68 M399.51 246.59 C430.79 213.69, 459.48 176.64, 505.13 125.08 M399.51 246.59 C435.79 206.39, 471.84 165.72, 505.13 125.08 M405.15 246.19 C431.72 216.74, 461.91 182.94, 505.53 130.72 M405.15 246.19 C427.27 223.22, 447.28 200.49, 505.53 130.72 M410.14 246.55 C431.94 221.2, 448.73 200.86, 505.27 137.12 M410.14 246.55 C434.26 217.56, 460.98 187.83, 505.27 137.12 M415.78 246.16 C451.96 205.75, 486.02 163.3, 505.66 142.76 M415.78 246.16 C449.01 207.99, 484.34 167.05, 505.66 142.76 M420.77 246.52 C447.48 212.83, 478.07 181.23, 505.4 149.16 M420.77 246.52 C452.09 210.21, 484.54 174.15, 505.4 149.16 M426.41 246.12 C448 224.43, 466.52 201.12, 505.14 155.56 M426.41 246.12 C452.57 215.47, 478.94 183.88, 505.14 155.56 M431.4 246.48 C454.14 218.97, 474.58 195.25, 505.53 161.2 M431.4 246.48 C451.59 224.23, 469.89 202.22, 505.53 161.2 M437.04 246.09 C456.49 226.52, 473.78 203.29, 505.27 167.6 M437.04 246.09 C457.74 221.85, 477.47 198.9, 505.27 167.6 M442.03 246.45 C464.42 218.74, 488.5 193.7, 505.67 173.24 M442.03 246.45 C463.59 223, 483.14 197.35, 505.67 173.24 M447.67 246.05 C467.82 224.84, 486.8 199.96, 505.4 179.64 M447.67 246.05 C466.69 223.89, 484.54 203.56, 505.4 179.64 M452.66 246.41 C471.99 223.75, 489.64 202.26, 505.14 186.04 M452.66 246.41 C465.9 229, 481.83 213.1, 505.14 186.04 M458.3 246.02 C476 227.48, 489.19 207.73, 505.54 191.68 M458.3 246.02 C475.54 226.14, 491.74 207.65, 505.54 191.68 M463.29 246.38 C478.08 229.73, 493.1 214.56, 505.28 198.08 M463.29 246.38 C478.76 227.56, 496.51 209.96, 505.28 198.08 M468.93 245.98 C480.87 230.93, 494.89 216.32, 505.67 203.72 M468.93 245.98 C479.52 232.36, 491.92 219.18, 505.67 203.72 M473.92 246.34 C486.53 234.35, 495.83 219.42, 505.41 210.12 M473.92 246.34 C482.1 236.19, 489.94 226.96, 505.41 210.12 M480.22 245.19 C488.22 237.95, 492.62 230.84, 506.46 215.01 M480.22 245.19 C486.8 237.08, 494.57 228.89, 506.46 215.01 M487.17 243.29 C493.22 238.29, 497.83 230.66, 505.54 222.16 M487.17 243.29 C492.26 236.64, 497.75 232.19, 505.54 222.16" stroke="#b2f2bb" stroke-width="0.5" fill="none"></path><path d="M32 0 M32 0 C166.32 -0.93, 303.25 -1.22, 472 0 M32 0 C136.51 1.62, 240.51 2.46, 472 0 M472 0 C495.15 0.49, 504.28 9.44, 504 32 M472 0 C493.25 -1.04, 503.05 10.91, 504 32 M504 32 C501.58 90.86, 504.62 148.4, 504 212.57 M504 32 C504.51 101.78, 503.99 171.31, 504 212.57 M504 212.57 C504.53 235.9, 493.94 245.87, 472 244.57 M504 212.57 C502.66 235.6, 493.54 245.64, 472 244.57 M472 244.57 C331.7 246.89, 192.38 247.16, 32 244.57 M472 244.57 C350.09 245.96, 228.96 245.31, 32 244.57 M32 244.57 C11.08 246.18, 1.81 232.32, 0 212.57 M32 244.57 C9.16 245.3, -0.67 233.27, 0 212.57 M0 212.57 C0.3 142.93, 2.39 74.47, 0 32 M0 212.57 C0.3 174.84, 1.39 136.92, 0 32 M0 32 C1.84 11.12, 10.89 -0.04, 32 0 M0 32 C1.59 10.12, 12.95 0.24, 32 0" stroke="#1e1e1e" stroke-width="1" fill="none"></path></g><g transform="translate(55.714372907366055 430.5715070452009) rotate(0 94.482421875 34.5)"><text x="0" y="0" font-family="Helvetica, Segoe UI Emoji" font-size="20px" fill="#1e1e1e" text-anchor="start" style="white-space: pre;" direction="ltr" dominant-baseline="text-before-edge">CD</text><text x="0" y="23" font-family="Helvetica, Segoe UI Emoji" font-size="20px" fill="#1e1e1e" text-anchor="start" style="white-space: pre;" direction="ltr" dominant-baseline="text-before-edge">- Canary Deployment</text><text x="0" y="46" font-family="Helvetica, Segoe UI Emoji" font-size="20px" fill="#1e1e1e" text-anchor="start" style="white-space: pre;" direction="ltr" dominant-baseline="text-before-edge"></text></g><g stroke-linecap="round"><g transform="translate(632.8571864536831 501.4286586216518) rotate(0 -47.04167243557714 -2.1892104581398257)"><path d="M-0.52 0.46 C-16.39 -0.15, -78.96 -3.99, -94.65 -4.84 M1.41 -0.35 C-14.65 -0.68, -79.36 -2.96, -95.49 -3.46" stroke="#1e1e1e" stroke-width="1" fill="none"></path></g><g transform="translate(632.8571864536831 501.4286586216518) rotate(0 -47.04167243557714 -2.1892104581398257)"><path d="M-66.21 -12.44 C-77.44 -9.42, -86.92 -4.51, -94.82 -1.6 M-67.87 -13.08 C-76.92 -9.5, -89.49 -6.46, -95.66 -3.86" stroke="#1e1e1e" stroke-width="1" fill="none"></path></g><g transform="translate(632.8571864536831 501.4286586216518) rotate(0 -47.04167243557714 -2.1892104581398257)"><path d="M-66.89 8.07 C-77.68 4, -86.93 1.81, -94.82 -1.6 M-68.55 7.43 C-77.35 3.17, -89.66 -1.62, -95.66 -3.86" stroke="#1e1e1e" stroke-width="1" fill="none"></path></g></g><mask></mask><g transform="translate(575.7143293108259 469.42866734095986) rotate(0 10.5615234375 11.5)"><text x="0" y="0" font-family="Helvetica, Segoe UI Emoji" font-size="20px" fill="#1e1e1e" text-anchor="start" style="white-space: pre;" direction="ltr" dominant-baseline="text-before-edge">Ja</text></g><g stroke-linecap="round" transform="translate(1215.7145036969866 206.5715244838171) rotate(0 291.4285714285712 114.8571341378348)"><path d="M7.86 8.16 C7.86 8.16, 7.86 8.16, 7.86 8.16 M7.86 8.16 C7.86 8.16, 7.86 8.16, 7.86 8.16 M3.66 19.09 C7.59 13.8, 12.2 10.95, 18.1 2.48 M3.66 19.09 C7.33 13.41, 11.2 9.84, 18.1 2.48 M2.75 26.24 C10.16 16.17, 16.8 6.73, 24.4 1.33 M2.75 26.24 C8.89 20.39, 14.43 12.89, 24.4 1.33 M1.83 33.39 C14.23 20.52, 25.02 8.08, 30.7 0.18 M1.83 33.39 C11.21 22.94, 20.01 11.41, 30.7 0.18 M1.57 39.79 C7.63 29.49, 14.76 21.42, 34.37 2.05 M1.57 39.79 C14.92 25.39, 27.61 11.12, 34.37 2.05 M1.96 45.43 C16.17 28.59, 33.79 10.51, 39.36 2.41 M1.96 45.43 C15.71 29.81, 29.05 13.37, 39.36 2.41 M1.7 51.83 C17.09 32.83, 33.08 16.3, 45 2.02 M1.7 51.83 C13.52 37.35, 27.23 24.24, 45 2.02 M2.1 57.47 C13.12 43.29, 25.86 31.89, 49.99 2.38 M2.1 57.47 C19.31 38.49, 34.46 20.92, 49.99 2.38 M1.83 63.87 C13.31 47.41, 30.16 31.27, 55.63 1.98 M1.83 63.87 C19.94 43.45, 37.6 22.57, 55.63 1.98 M1.57 70.27 C22.83 49.14, 41.44 27.21, 60.62 2.34 M1.57 70.27 C23.96 46.18, 44.49 22.51, 60.62 2.34 M1.97 75.91 C22.65 48.86, 45.57 25.1, 66.26 1.95 M1.97 75.91 C18.52 56.69, 34.79 39.76, 66.26 1.95 M1.71 82.31 C20.97 62.09, 37.43 41.38, 71.25 2.31 M1.71 82.31 C27.27 52.57, 53.56 23.86, 71.25 2.31 M2.1 87.95 C19.3 65.51, 35.56 47.16, 76.89 1.91 M2.1 87.95 C17.8 69.55, 33.09 51.23, 76.89 1.91 M1.84 94.35 C32.59 61.53, 59.33 29.95, 81.88 2.27 M1.84 94.35 C24.87 68.13, 48.92 40.96, 81.88 2.27 M2.23 99.99 C21.7 73.43, 45.2 51.05, 87.52 1.88 M2.23 99.99 C30.82 66.92, 58.54 35.46, 87.52 1.88 M1.97 106.39 C34.18 70.85, 64.02 34.25, 92.51 2.24 M1.97 106.39 C24.99 79.86, 46.61 53.89, 92.51 2.24 M1.71 112.79 C30.53 78.29, 58.81 47.28, 98.15 1.85 M1.71 112.79 C24.55 85.89, 47.12 59.62, 98.15 1.85 M2.1 118.43 C24.46 90.7, 46.5 66.9, 103.14 2.21 M2.1 118.43 C40.87 72.24, 80.57 26.38, 103.14 2.21 M1.84 124.83 C42.88 77.29, 85.41 32.08, 108.78 1.81 M1.84 124.83 C24.74 98.49, 50.43 70.3, 108.78 1.81 M2.24 130.47 C26.19 102.63, 50.71 76.47, 113.77 2.17 M2.24 130.47 C29.84 99.29, 56.96 66.8, 113.77 2.17 M1.98 136.87 C35.67 96.79, 71.97 52.86, 119.41 1.78 M1.98 136.87 C39.13 94.78, 74.03 53.23, 119.41 1.78 M2.37 142.51 C48.16 88.28, 95.57 36.02, 124.4 2.14 M2.37 142.51 C47.02 91.26, 89.74 40.17, 124.4 2.14 M2.11 148.91 C51.56 95.32, 97.75 37.59, 130.04 1.74 M2.11 148.91 C29.16 118.39, 56.66 85.97, 130.04 1.74 M1.85 155.31 C35.4 116.9, 72.12 76.65, 135.03 2.1 M1.85 155.31 C39.37 111.44, 76.65 67.22, 135.03 2.1 M2.24 160.95 C42.93 115.23, 81.21 68.46, 140.67 1.71 M2.24 160.95 C53.71 102.83, 103.07 46.44, 140.67 1.71 M1.98 167.35 C32.7 130.65, 66.61 92.49, 145.66 2.07 M1.98 167.35 C54.05 107.54, 105.56 48.3, 145.66 2.07 M2.38 172.99 C37.97 131.38, 73.48 91.58, 150.65 2.43 M2.38 172.99 C43.59 126.75, 84.45 78.99, 150.65 2.43 M2.11 179.39 C46.65 125.87, 94.06 76.82, 156.29 2.03 M2.11 179.39 C52.46 120.83, 105.2 60.86, 156.29 2.03 M1.85 185.79 C36.28 144.64, 72.92 105.98, 161.28 2.39 M1.85 185.79 C63.08 118.06, 122.23 49, 161.28 2.39 M2.25 191.43 C55.48 132.62, 111.31 69.97, 166.92 2 M2.25 191.43 C62.63 119.9, 122.42 50, 166.92 2 M1.99 197.83 C55 136.55, 109.59 73.92, 171.91 2.36 M1.99 197.83 C36.02 158.22, 71.24 118.18, 171.91 2.36 M0.41 205.74 C42.88 157.56, 82.43 110.52, 177.55 1.96 M0.41 205.74 C39.69 161.15, 77.65 116.39, 177.55 1.96 M2.12 209.87 C40.43 166.74, 78 124.78, 182.54 2.32 M2.12 209.87 C73.57 128.46, 142.92 48.52, 182.54 2.32 M3.83 214 C77.19 131.1, 147.15 47.75, 188.18 1.93 M3.83 214 C49.63 160.07, 94.37 107.6, 188.18 1.93 M5.53 218.14 C62.15 153.5, 118.05 89.23, 193.17 2.29 M5.53 218.14 C57.32 159.74, 107.59 101.56, 193.17 2.29 M8.55 220.76 C80.77 137.62, 154.68 55.13, 198.81 1.9 M8.55 220.76 C48.35 174.51, 89.16 128.48, 198.81 1.9 M10.91 224.14 C76.86 147.16, 141.78 74.44, 203.8 2.26 M10.91 224.14 C64.03 160.94, 119.03 98.89, 203.8 2.26 M13.93 226.76 C67.02 165.98, 121.04 105.25, 209.44 1.86 M13.93 226.76 C68.49 162.25, 124.64 97.71, 209.44 1.86 M18.26 227.88 C63.16 174.13, 107.58 120.8, 214.43 2.22 M18.26 227.88 C92.64 141.81, 165.79 57.74, 214.43 2.22 M23.25 228.24 C92.08 144.35, 165.13 63.58, 220.07 1.83 M23.25 228.24 C68.74 174.94, 114.77 121.69, 220.07 1.83 M27.58 229.35 C70.58 177.76, 117.68 123.19, 225.06 2.19 M27.58 229.35 C106.53 139.88, 184.94 49.63, 225.06 2.19 M32.57 229.71 C110.52 140.63, 185.64 51.91, 230.7 1.79 M32.57 229.71 C77.12 176.41, 121.95 123.39, 230.7 1.79 M37.56 230.07 C99.8 157.07, 163.96 83.16, 235.69 2.15 M37.56 230.07 C93.51 165.9, 150.06 99.74, 235.69 2.15 M43.2 229.68 C114.27 147.87, 183.63 68.74, 241.33 1.76 M43.2 229.68 C95.07 172.75, 144.67 115.65, 241.33 1.76 M48.19 230.04 C97.78 172.57, 146.79 118.07, 246.32 2.12 M48.19 230.04 C107.65 157.94, 169.01 87.92, 246.32 2.12 M53.83 229.64 C113.16 163.15, 172.37 94.37, 251.96 1.72 M53.83 229.64 C110.98 166, 167.27 100.97, 251.96 1.72 M58.82 230.01 C117.46 159.27, 179.52 90.63, 256.95 2.08 M58.82 230.01 C101.69 181.47, 143.64 133.58, 256.95 2.08 M63.8 230.37 C123.29 162.28, 184.86 93.49, 262.59 1.69 M63.8 230.37 C122.81 162.62, 181.97 93.64, 262.59 1.69 M69.45 229.97 C133.13 159.23, 196.7 87.16, 267.58 2.05 M69.45 229.97 C121.98 170.14, 173.9 110.7, 267.58 2.05 M74.43 230.33 C134.94 158.97, 195.66 91.37, 272.56 2.41 M74.43 230.33 C131.42 164.06, 188.85 98.09, 272.56 2.41 M80.08 229.94 C134.62 167.95, 190.68 103.73, 278.21 2.01 M80.08 229.94 C122.45 180.24, 163.76 131.31, 278.21 2.01 M85.06 230.3 C139.81 164.4, 195.63 100.19, 283.19 2.37 M85.06 230.3 C131.15 174.88, 179.61 119, 283.19 2.37 M90.71 229.9 C154.81 160.53, 215.73 89.84, 288.84 1.98 M90.71 229.9 C157.91 152.65, 224.37 76.63, 288.84 1.98 M95.69 230.26 C150 169.07, 203.02 108.93, 293.82 2.34 M95.69 230.26 C162.98 150.54, 231.32 71.72, 293.82 2.34 M101.34 229.87 C159.15 165.41, 218.73 95.8, 299.47 1.94 M101.34 229.87 C177.86 139.3, 256.53 48.54, 299.47 1.94 M106.32 230.23 C169.18 156.92, 235.7 81.82, 304.45 2.3 M106.32 230.23 C144.28 185.21, 184.5 139.5, 304.45 2.3 M111.97 229.83 C162.38 173.2, 208.94 116.67, 310.1 1.91 M111.97 229.83 C164.9 169.29, 218.19 109.15, 310.1 1.91 M116.95 230.19 C197.71 139.5, 273.54 49.99, 315.08 2.27 M116.95 230.19 C156.64 184.18, 196.43 138.82, 315.08 2.27 M122.6 229.8 C191.44 151.18, 258.8 74.65, 320.73 1.88 M122.6 229.8 C184.42 156.36, 247.65 83.97, 320.73 1.88 M127.58 230.16 C172.75 179.29, 218.89 126.03, 325.71 2.24 M127.58 230.16 C198.51 148.98, 267.72 69.19, 325.71 2.24 M133.23 229.76 C191.24 159.79, 252.85 92.76, 331.36 1.84 M133.23 229.76 C181.64 176.62, 227.09 121.89, 331.36 1.84 M138.21 230.12 C189.17 172.43, 238.09 113.08, 336.34 2.2 M138.21 230.12 C187.07 173.02, 238.36 116.09, 336.34 2.2 M143.86 229.73 C219.36 144.94, 292.34 56.29, 341.99 1.81 M143.86 229.73 C222.71 137.96, 301.17 48.46, 341.99 1.81 M148.84 230.09 C211.83 157.06, 276.87 83.88, 346.97 2.17 M148.84 230.09 C211.85 159.37, 273.24 87.99, 346.97 2.17 M154.49 229.69 C233.42 139.84, 310.61 51.34, 352.62 1.77 M154.49 229.69 C209.85 164.99, 264.87 100.86, 352.62 1.77 M159.47 230.05 C226.13 150.54, 294.69 72.34, 357.6 2.13 M159.47 230.05 C228.55 151.51, 297.58 71.96, 357.6 2.13 M165.12 229.66 C223.67 160.24, 280.88 94.1, 363.25 1.74 M165.12 229.66 C221.45 167.03, 276.3 101.68, 363.25 1.74 M170.1 230.02 C225.06 166.77, 281.09 102.66, 368.23 2.1 M170.1 230.02 C243.01 146.55, 314.55 64.63, 368.23 2.1 M175.75 229.63 C252.2 141.36, 330.05 51.36, 373.88 1.7 M175.75 229.63 C231.6 162.98, 288.67 97.12, 373.88 1.7 M180.73 229.99 C245.96 153.21, 311.51 80.67, 378.86 2.06 M180.73 229.99 C254.26 145.26, 329.2 59.01, 378.86 2.06 M185.72 230.35 C254.15 152.03, 318.48 76.81, 383.85 2.42 M185.72 230.35 C243.54 164.2, 301.07 97.2, 383.85 2.42 M191.36 229.95 C260.36 150.9, 327.12 73.17, 389.49 2.03 M191.36 229.95 C235.54 180.19, 278.07 131.29, 389.49 2.03 M196.35 230.31 C261.87 156.02, 325.19 84.17, 394.48 2.39 M196.35 230.31 C273.08 139.63, 350.75 51.12, 394.48 2.39 M201.99 229.92 C245.3 180.03, 288.25 131.43, 400.12 1.99 M201.99 229.92 C260.7 160.9, 320.07 92.14, 400.12 1.99 M206.98 230.28 C266.61 163.93, 324.83 96.08, 405.11 2.35 M206.98 230.28 C282.72 143.26, 359.14 55.7, 405.11 2.35 M212.62 229.88 C273.06 163.26, 331.69 97.16, 410.75 1.96 M212.62 229.88 C262.24 172.74, 311.18 114.74, 410.75 1.96 M217.61 230.24 C290.01 147.79, 358.83 67.51, 415.74 2.32 M217.61 230.24 C290.65 145.5, 365.64 60.19, 415.74 2.32 M223.25 229.85 C296.28 147.91, 366.51 64.26, 421.38 1.93 M223.25 229.85 C282.88 160.7, 342.22 92.24, 421.38 1.93 M228.24 230.21 C293.73 153.3, 357.06 80.43, 426.37 2.29 M228.24 230.21 C300.03 146.77, 374.67 62.29, 426.37 2.29 M233.88 229.81 C287.74 166.22, 338.45 105.2, 432.01 1.89 M233.88 229.81 C292.2 164.53, 348.57 99.37, 432.01 1.89 M238.87 230.17 C278.77 185.43, 319.24 138.2, 437 2.25 M238.87 230.17 C293.1 167.38, 348.38 103.84, 437 2.25 M244.51 229.78 C300.82 164.57, 358.05 100.43, 442.64 1.86 M244.51 229.78 C290.31 174.8, 337.15 120.5, 442.64 1.86 M249.5 230.14 C313.77 157, 380.04 83.2, 447.63 2.22 M249.5 230.14 C310.09 160.69, 370.59 91.39, 447.63 2.22 M255.14 229.74 C326.03 148.06, 395.7 68.08, 453.27 1.82 M255.14 229.74 C334.51 140.05, 411.56 49.47, 453.27 1.82 M260.13 230.1 C329.46 148.58, 402.41 70.05, 458.26 2.18 M260.13 230.1 C333.62 144.1, 407.95 58.09, 458.26 2.18 M265.78 229.71 C313.95 175.54, 361.72 122.26, 463.9 1.79 M265.78 229.71 C305.37 184.67, 345.9 138.34, 463.9 1.79 M270.76 230.07 C336.71 154.45, 402.56 77.79, 468.89 2.15 M270.76 230.07 C328.33 160.66, 387.78 91.36, 468.89 2.15 M276.41 229.68 C349.96 145.38, 425.08 58.94, 474.53 1.75 M276.41 229.68 C337.92 160.25, 397.61 91.39, 474.53 1.75 M281.39 230.04 C325.25 179.49, 369.42 127.14, 479.52 2.11 M281.39 230.04 C323.5 183.6, 364.28 136.09, 479.52 2.11 M287.04 229.64 C332.71 180.41, 377.64 128.92, 485.17 1.72 M287.04 229.64 C356.06 152.79, 423.52 73.82, 485.17 1.72 M292.02 230 C360.83 150.98, 429.33 71.96, 490.15 2.08 M292.02 230 C353.82 159.02, 416.73 85.79, 490.15 2.08 M297.01 230.36 C359.87 158.15, 422.34 82.81, 495.8 1.68 M297.01 230.36 C372.96 143.85, 447.69 56.43, 495.8 1.68 M302.65 229.97 C377.9 143.66, 452.35 58.03, 500.78 2.04 M302.65 229.97 C372.98 146.93, 444.28 64.8, 500.78 2.04 M307.64 230.33 C349.73 182.19, 391.58 131.5, 505.77 2.4 M307.64 230.33 C357.87 173.16, 408.01 114.87, 505.77 2.4 M313.28 229.93 C376.1 157.51, 438.05 87.55, 511.41 2.01 M313.28 229.93 C386.42 146.24, 458.58 63.58, 511.41 2.01 M318.27 230.29 C382.25 156.66, 447.01 81.8, 516.4 2.37 M318.27 230.29 C364.87 176.12, 413.73 120.36, 516.4 2.37 M323.91 229.9 C391.01 151.84, 458.37 75.42, 522.04 1.98 M323.91 229.9 C377.82 169.92, 431.1 108.04, 522.04 1.98 M328.9 230.26 C389.23 159.04, 447.71 90.82, 527.03 2.34 M328.9 230.26 C407.14 140.55, 485.14 50.56, 527.03 2.34 M334.54 229.86 C400.4 153.72, 467.02 75.14, 532.67 1.94 M334.54 229.86 C394.47 159.65, 454.73 90.27, 532.67 1.94 M339.53 230.22 C391.2 166.15, 443.34 105.6, 537.66 2.3 M339.53 230.22 C413.52 144.46, 486.37 61.28, 537.66 2.3 M345.17 229.83 C422.52 143.75, 497.56 58.81, 543.3 1.91 M345.17 229.83 C386.01 181.24, 428.49 131.69, 543.3 1.91 M350.16 230.19 C421.31 148.46, 495.29 63.52, 548.29 2.27 M350.16 230.19 C396.75 173.94, 446.08 118, 548.29 2.27 M355.8 229.79 C407.65 170.59, 457.92 111.31, 553.28 2.63 M355.8 229.79 C403.23 173.61, 451.36 118.94, 553.28 2.63 M360.79 230.15 C437.91 141.26, 515.54 51.87, 558.26 2.99 M360.79 230.15 C416.16 166.06, 472.97 102.02, 558.26 2.99 M366.43 229.76 C431.93 156.42, 494.89 82.18, 563.25 3.35 M366.43 229.76 C432.48 155.48, 498.49 80.76, 563.25 3.35 M371.42 230.12 C447.65 139.27, 526.63 50.64, 567.58 4.46 M371.42 230.12 C443.2 148.34, 514.41 66.02, 567.58 4.46 M377.06 229.72 C431.05 168.53, 483.58 108.11, 571.26 6.33 M377.06 229.72 C440.54 155.89, 506.5 79.64, 571.26 6.33 M382.05 230.09 C434.1 170.48, 487.65 109.25, 574.93 8.2 M382.05 230.09 C451.99 152, 520.16 72.4, 574.93 8.2 M387.69 229.69 C452.93 154.31, 520.67 80.35, 577.29 11.58 M387.69 229.69 C428.46 183.66, 467.44 137.72, 577.29 11.58 M392.68 230.05 C460.44 152.89, 528.45 74.61, 580.31 14.2 M392.68 230.05 C457.85 155.81, 522.53 80.76, 580.31 14.2 M398.32 229.66 C459.4 160.85, 518.52 89.05, 582.02 18.34 M398.32 229.66 C437.17 186.06, 474.96 142.37, 582.02 18.34 M403.31 230.02 C449.52 177.75, 495.8 125.56, 583.07 23.23 M403.31 230.02 C440.7 188.22, 477.77 145.14, 583.07 23.23 M408.95 229.62 C470.88 157.12, 533.82 83.91, 585.43 26.6 M408.95 229.62 C459.45 172.94, 508.76 116.59, 585.43 26.6 M413.94 229.98 C478.37 155.53, 541.32 82.5, 585.17 33 M413.94 229.98 C453.73 183.9, 493.05 138.48, 585.17 33 M418.93 230.34 C470.82 169.3, 522.51 109.33, 584.91 39.4 M418.93 230.34 C470.57 172.17, 519.93 114.93, 584.91 39.4 M424.57 229.95 C458.06 188.7, 491.1 149.14, 585.3 45.04 M424.57 229.95 C476.37 174.41, 525.69 116.43, 585.3 45.04 M429.56 230.31 C466.02 188.39, 504.28 144.97, 585.04 51.44 M429.56 230.31 C467.2 188.56, 503.16 148.05, 585.04 51.44 M435.2 229.91 C477.77 180.42, 521.03 131.63, 585.44 57.08 M435.2 229.91 C484.47 173.68, 533.83 116.7, 585.44 57.08 M440.19 230.27 C482.43 181.27, 525.48 132.83, 585.18 63.48 M440.19 230.27 C488.49 175.1, 536.14 119.32, 585.18 63.48 M445.83 229.88 C496.58 170.23, 550.41 108.01, 585.57 69.12 M445.83 229.88 C500.4 167.28, 555.51 105.62, 585.57 69.12 M450.82 230.24 C478.67 198.02, 508.48 165.07, 585.31 75.52 M450.82 230.24 C503.18 170.1, 555.69 109.75, 585.31 75.52 M456.46 229.84 C497.42 182.28, 535.68 139.02, 585.05 81.92 M456.46 229.84 C505.69 172.6, 555.68 116.12, 585.05 81.92 M461.45 230.2 C489.73 195.14, 523.12 157.08, 585.44 87.56 M461.45 230.2 C494.83 189.87, 528.05 151.85, 585.44 87.56 M467.09 229.81 C506.84 181.06, 547.71 135.05, 585.18 93.96 M467.09 229.81 C493.29 201.31, 518.4 171.66, 585.18 93.96 M472.08 230.17 C500.97 199.39, 527.51 169.91, 585.58 99.6 M472.08 230.17 C511.81 183.18, 551.08 137.73, 585.58 99.6 M477.72 229.77 C499.76 204.63, 524.52 179.68, 585.31 106 M477.72 229.77 C520.19 180.92, 561.56 134.43, 585.31 106 M482.71 230.13 C514.35 191.95, 550.64 154.52, 585.71 111.65 M482.71 230.13 C513.74 192.63, 547.31 155.25, 585.71 111.65 M488.35 229.74 C514.13 201.83, 536.06 175.08, 585.45 118.04 M488.35 229.74 C509.72 206.69, 529.16 183, 585.45 118.04 M493.34 230.1 C516.79 202.56, 539.31 176.86, 585.19 124.44 M493.34 230.1 C524.52 195.06, 556.28 158.76, 585.19 124.44 M498.98 229.71 C521.85 204.1, 545.13 176.64, 585.58 130.08 M498.98 229.71 C532.43 191.07, 565.96 152.96, 585.58 130.08 M503.97 230.07 C524.57 207.55, 541.14 185.32, 585.32 136.48 M503.97 230.07 C529.93 200.75, 557.04 169.17, 585.32 136.48 M509.61 229.67 C537.71 199.12, 562.27 167.14, 585.71 142.12 M509.61 229.67 C528.05 208.22, 546.81 187.14, 585.71 142.12 M514.6 230.03 C537.41 205.46, 555.74 178.39, 585.45 148.52 M514.6 230.03 C532.21 208.09, 549.51 189.33, 585.45 148.52 M520.24 229.64 C547.56 201.99, 570.65 173.04, 585.85 154.17 M520.24 229.64 C538.8 207.58, 557.74 186.78, 585.85 154.17 M525.23 230 C535.5 216.92, 549.98 200.2, 585.59 160.56 M525.23 230 C539.04 215.03, 550.96 200.76, 585.59 160.56 M530.22 230.36 C549.84 211.55, 566.71 190.85, 585.32 166.96 M530.22 230.36 C544.05 215.71, 557.36 200.67, 585.32 166.96 M535.86 229.96 C550.13 217.96, 561.5 200.87, 585.72 172.6 M535.86 229.96 C547.42 216.94, 558.15 205.5, 585.72 172.6 M540.85 230.32 C555.84 212.46, 570.87 193.81, 585.46 179 M540.85 230.32 C549.66 219.11, 561.49 206.35, 585.46 179 M546.49 229.93 C556.9 219.3, 563.93 206.12, 585.85 184.65 M546.49 229.93 C560.28 213.46, 573.04 198, 585.85 184.65 M551.48 230.29 C560.45 217.51, 572.87 208.64, 585.59 191.04 M551.48 230.29 C564.3 215.53, 576.7 201.42, 585.59 191.04 M557.77 229.14 C561.86 221.08, 569.53 217.4, 584.02 198.95 M557.77 229.14 C562.49 223.06, 569.41 216.49, 584.02 198.95 M563.42 228.74 C570.25 221.13, 575.35 216.75, 583.1 206.1 M563.42 228.74 C567.68 224.95, 571.4 219.97, 583.1 206.1" stroke="#ffec99" stroke-width="0.5" fill="none"></path><path d="M32 0 M32 0 C188.13 -0.61, 345.49 -1.05, 550.86 0 M32 0 C196.72 0.68, 361.75 0.65, 550.86 0 M550.86 0 C571.37 0.37, 581.34 9.06, 582.86 32 M550.86 0 C570.9 1.21, 582.72 9.8, 582.86 32 M582.86 32 C581.97 74.36, 582.12 119.64, 582.86 197.71 M582.86 32 C583.07 80.54, 584.54 127.2, 582.86 197.71 M582.86 197.71 C581.29 217.92, 572.97 230.02, 550.86 229.71 M582.86 197.71 C584.75 218.69, 573.85 229.52, 550.86 229.71 M550.86 229.71 C443.8 230.57, 336.56 231.63, 32 229.71 M550.86 229.71 C430.7 231.47, 310.07 231.19, 32 229.71 M32 229.71 C9.25 229.29, 1.66 218.48, 0 197.71 M32 229.71 C10.81 227.42, 0.49 217.79, 0 197.71 M0 197.71 C2.19 131.52, 2.22 68.46, 0 32 M0 197.71 C0.09 146.89, 1.75 93.78, 0 32 M0 32 C-1.85 9.47, 10.27 -1.62, 32 0 M0 32 C1.34 9.01, 11.16 0.71, 32 0" stroke="#1e1e1e" stroke-width="1" fill="none"></path></g><g transform="translate(1253.4287370954241 237.42863246372764) rotate(0 69.482421875 23)"><text x="0" y="0" font-family="Helvetica, Segoe UI Emoji" font-size="20px" fill="#1e1e1e" text-anchor="start" style="white-space: pre;" direction="ltr" dominant-baseline="text-before-edge">Fehlermeldung:</text><text x="0" y="23" font-family="Helvetica, Segoe UI Emoji" font-size="20px" fill="#1e1e1e" text-anchor="start" style="white-space: pre;" direction="ltr" dominant-baseline="text-before-edge">- Bugfixing</text></g><g stroke-linecap="round"><g transform="translate(1127.7144513811384 500.2857753208705) rotate(0 168.80993207786355 0.5890472076833362)"><path d="M0.53 -0.9 C56.55 -0.56, 280.15 1.91, 336.1 2.08 M-0.65 1.24 C55.72 1.25, 281.71 0.5, 338.27 0.44" stroke="#1e1e1e" stroke-width="1" fill="none"></path></g></g><mask></mask><g stroke-linecap="round"><g transform="translate(1460.2859497070312 500.2857753208705) rotate(0 0.22343634055664552 -33.8960874988565)"><path d="M0.82 0.48 C1.12 -10.9, 0.89 -56.92, 0.75 -68.28 M-0.2 -0.31 C0 -11.57, -0.81 -56.16, -0.41 -67.18" stroke="#1e1e1e" stroke-width="1" fill="none"></path></g><g transform="translate(1460.2859497070312 500.2857753208705) rotate(0 0.22343634055664552 -33.8960874988565)"><path d="M10.5 -39.59 C6.12 -46.83, 5.02 -50.29, 1.08 -67.93 M9.11 -38.16 C7.61 -46.92, 4.97 -53.37, -1.14 -67.07" stroke="#1e1e1e" stroke-width="1" fill="none"></path></g><g transform="translate(1460.2859497070312 500.2857753208705) rotate(0 0.22343634055664552 -33.8960874988565)"><path d="M-10.02 -39.71 C-10.03 -47.07, -6.77 -50.5, 1.08 -67.93 M-11.41 -38.28 C-7.67 -46.91, -5.06 -53.33, -1.14 -67.07" stroke="#1e1e1e" stroke-width="1" fill="none"></path></g></g><mask></mask><g transform="translate(1170.0002179827009 469.42866734096) rotate(0 20.56640625 11.5)"><text x="0" y="0" font-family="Helvetica, Segoe UI Emoji" font-size="20px" fill="#1e1e1e" text-anchor="start" style="white-space: pre;" direction="ltr" dominant-baseline="text-before-edge">Nein</text></g><g stroke-linecap="round"><g transform="translate(1468.2859148297991 206.57148088727678) rotate(0 0.42934390509515197 -43.82625743043275)"><path d="M-0.51 -0.71 C-0.45 -15.57, -1 -74.73, -0.85 -89.19 M1.43 1.53 C1.96 -13.22, 1.68 -73.1, 1.42 -88.27" stroke="#1e1e1e" stroke-width="1" fill="none"></path></g></g><mask></mask><g stroke-linecap="round"><g transform="translate(1466.000235421317 117.42863246372764) rotate(0 -204.1798913403062 3.5584769771567153)"><path d="M-1.15 -0.57 C-69.42 0.89, -340.97 6.33, -408.8 7.69 M0.44 1.75 C-67.51 2.96, -338.27 5.35, -406.52 6" stroke="#1e1e1e" stroke-width="1" fill="none"></path></g><g transform="translate(1466.000235421317 117.42863246372764) rotate(0 -204.1798913403062 3.5584769771567153)"><path d="M-379.37 -5.86 C-387.43 -1.22, -397.9 1.09, -407.74 5.05 M-378.34 -3.59 C-387.01 -0.35, -396.96 2.12, -405.73 6.99" stroke="#1e1e1e" stroke-width="1" fill="none"></path></g><g transform="translate(1466.000235421317 117.42863246372764) rotate(0 -204.1798913403062 3.5584769771567153)"><path d="M-379.18 14.66 C-387.13 11.78, -397.67 6.57, -407.74 5.05 M-378.15 16.93 C-386.82 13.19, -396.84 8.69, -405.73 6.99" stroke="#1e1e1e" stroke-width="1" fill="none"></path></g></g><mask></mask></svg>